<svg width="301" height="267" viewBox="0 0 301 267" fill="none" xmlns="http://www.w3.org/2000/svg">
<g clip-path="url(#clip0_122_305)">
<path d="M234.324 235.24C225.427 238.61 215.49 234.129 212.117 225.239C208.745 216.349 213.229 206.42 222.127 203.051C231.024 199.681 240.962 204.162 244.334 213.052C247.706 221.942 243.222 231.871 234.324 235.24Z" fill="#3E3025"/>
<path d="M291.529 266.05C283.977 268.918 275.528 265.1 272.658 257.555C269.788 250.009 273.609 241.567 281.161 238.7C288.713 235.832 297.161 239.65 300.031 247.195C302.901 254.741 299.081 263.183 291.529 266.05Z" fill="#3E3025"/>
<path d="M41.0421 60.9206C35.4634 62.3007 29.9923 63.3044 24.7005 63.9138C28.2702 70.2406 32.7188 76.3524 37.885 82.1595C32.3601 77.84 27.4092 73.2517 23.3014 68.3229L20.9694 100.423C20.3595 88.8985 20.1263 77.3382 20.216 65.8495C14.4759 73.0366 7.80292 79.7578 0.0178223 85.6186C6.69077 78.9333 12.413 71.5311 17.2204 63.86C13.0588 63.0893 9.16621 62.0498 5.56067 60.7772C9.66848 60.6159 13.8301 60.1141 18.0635 59.3434C14.135 49.8979 12.2874 40.2195 12.7 31.007C12.9511 39.5922 15.6957 48.7867 20.8439 57.4077L23.8395 26.3291C23.4449 35.7029 23.3193 45.1125 23.4449 54.54C27.0504 49.0376 30.1178 43.4636 32.8803 37.6744C30.4586 45.0229 27.5347 52.3176 24.0548 59.3972C29.2927 60.3292 34.997 60.8489 41.0421 60.9386V60.9206Z" fill="#3E3025"/>
<path d="M273.429 59.7019L276.712 74.7035L268.389 61.9961C267.402 60.2934 265.339 59.5406 263.474 60.1679L242.307 67.3551L261.159 55.1315C262.864 54.1458 263.617 52.0846 262.989 50.2206L257.697 32.1362L268.03 47.9265C269.016 49.6291 271.079 50.3819 272.945 49.7546L293.053 43.6608L275.241 54.791C273.537 55.7768 272.783 57.8379 273.411 59.7019H273.429Z" fill="#3E3025"/>
<path d="M139.36 21.7944C142.679 29.0712 151.271 32.2615 158.554 28.9457C165.837 25.63 169.03 17.0448 165.711 9.76803C162.393 2.49127 153.801 -0.69904 146.518 2.61673C139.235 5.9325 136.042 14.5176 139.36 21.7944Z" stroke="#3E3025" stroke-width="1.45" stroke-linecap="round" stroke-linejoin="round"/>
<path d="M178.053 94.9023C181.658 91.1026 187.667 90.9413 191.47 94.5439C195.273 98.1464 195.435 104.151 191.829 107.95C188.223 111.75 182.214 111.911 178.411 108.309C174.609 104.706 174.447 98.702 178.053 94.9023Z" fill="#3E3025"/>
<path d="M84.201 47.0838C86.3536 44.8792 89.8694 45.3452 92.1475 48.0516C94.4257 50.758 94.4615 54.8803 92.2014 57.1207C89.9232 59.3969 86.2997 58.9309 84.1651 56.117C82.0126 53.3031 82.0843 49.2525 84.2189 47.0838H84.201Z" fill="#3E3025"/>
<path d="M127.79 178.299C130.14 176.524 133.423 176.524 135.253 178.299C137.082 180.091 136.724 182.994 134.41 184.823C132.078 186.633 128.616 186.633 126.822 184.823C125.01 183.012 125.476 180.073 127.79 178.299Z" fill="#3E3025"/>
<path d="M141.728 98.9892C143.486 97.2148 146.338 97.1789 148.132 98.8995C149.926 100.62 149.962 103.488 148.186 105.262C146.428 107.055 143.522 107.09 141.746 105.352C139.97 103.613 139.97 100.746 141.728 98.9892Z" fill="#3E3025"/>
<path d="M239.634 146.915C241.338 145.105 244.19 145.034 246.002 146.754C247.814 148.457 247.885 151.307 246.163 153.117C244.459 154.927 241.607 154.999 239.795 153.278C237.984 151.575 237.912 148.726 239.634 146.915Z" fill="#3E3025"/>
</g>
<defs>
<clipPath id="clip0_122_305">
<rect width="301" height="267" fill="white"/>
</clipPath>
</defs>
</svg>
