<svg width="288" height="288" viewBox="0 0 288 288" fill="none" xmlns="http://www.w3.org/2000/svg">
<g clip-path="url(#clip0_122_255)">
<path d="M148.732 91.5711C145.981 87.0033 144.151 81.8803 143.697 76.2777C142.99 67.6721 145.489 60.9087 149.262 53.5901C153.123 46.0948 157.136 36.3913 157.577 27.5964C158.12 16.8456 152.833 9.93075 148.795 1.22412C152.252 8.66892 154.473 18.5995 152.303 26.9024C151.167 31.2178 150.082 34.9781 148.025 38.9024C144.353 45.9307 139.293 51.773 135.785 58.8645C133.072 64.3661 131.167 69.3629 130.511 75.6216C129.918 81.2872 131.609 87.3566 134.334 92.2399" stroke="#3E3025" stroke-width="1.92" stroke-linecap="round" stroke-linejoin="round"/>
<path d="M139.848 197.426C142.271 201.741 143.886 206.524 144.315 211.71C145.022 220.315 142.523 227.079 138.751 234.397C134.889 241.893 130.877 251.596 130.435 260.391C129.893 271.142 135.18 278.057 139.217 286.763C135.76 279.319 133.539 269.388 135.71 261.085C136.845 256.77 137.93 253.009 139.987 249.085C143.646 242.057 148.719 236.215 152.227 229.123C154.94 223.621 156.845 218.625 157.501 212.366C158.057 207.028 156.58 201.375 154.132 196.644" stroke="#3E3025" stroke-width="1.92" stroke-linecap="round" stroke-linejoin="round"/>
<path d="M196.959 148.429C201.388 145.855 206.334 144.139 211.722 143.697C220.328 142.991 227.091 145.489 234.41 149.262C241.905 153.123 251.609 157.136 260.404 157.577C271.155 158.12 278.069 152.833 286.789 148.795C279.344 152.253 269.413 154.473 261.11 152.303C256.795 151.167 253.035 150.082 249.11 148.025C242.082 144.354 236.24 139.294 229.148 135.786C223.647 133.073 218.65 131.167 212.391 130.511C206.864 129.931 200.972 131.533 196.151 134.145" stroke="#3E3025" stroke-width="1.92" stroke-linecap="round" stroke-linejoin="round"/>
<path d="M91.0916 139.546C86.65 142.132 81.6784 143.861 76.2777 144.315C67.6721 145.022 60.9087 142.523 53.5901 138.751C46.0948 134.889 36.4039 130.877 27.5964 130.435C16.8456 129.893 9.93075 135.18 1.22412 139.217C8.66892 135.76 18.5995 133.539 26.9024 135.71C31.2178 136.845 34.9781 137.93 38.9024 139.987C45.9307 143.659 51.773 148.719 58.8645 152.227C64.3661 154.94 69.3629 156.845 75.6216 157.501C81.0979 158.069 86.9276 156.505 91.7225 153.943" stroke="#3E3025" stroke-width="1.92" stroke-linecap="round" stroke-linejoin="round"/>
<path d="M184.467 110.069C185.754 104.972 188.076 100.126 191.659 95.8865C197.237 89.2997 203.786 86.284 211.634 83.7729C219.659 81.1988 229.363 77.1862 235.899 71.2808C243.887 64.0632 245.035 55.4322 248.341 46.4102C245.514 54.1199 240.063 62.713 232.656 67.0537C228.808 69.3124 225.376 71.1925 221.148 72.5174C213.59 74.8897 205.868 75.4449 198.372 77.9811C192.568 79.9496 187.685 82.1452 182.789 86.1073C178.385 89.6783 175.319 95.1042 173.779 100.454" stroke="#3E3025" stroke-width="1.92" stroke-linecap="round" stroke-linejoin="round"/>
<path d="M103.318 178.675C101.981 183.495 99.7348 188.076 96.3279 192.101C90.7506 198.688 84.2017 201.704 76.3531 204.215C68.3279 206.789 58.6244 210.801 52.0881 216.707C44.1007 223.925 42.9525 232.555 39.6465 241.577C42.473 233.868 47.9241 225.275 55.331 220.934C59.1796 218.675 62.6118 216.795 66.8389 215.47C74.3973 213.098 82.1197 212.543 89.6149 210.007C95.432 208.038 100.303 205.842 105.199 201.88C109.388 198.486 112.353 193.401 113.956 188.316" stroke="#3E3025" stroke-width="1.92" stroke-linecap="round" stroke-linejoin="round"/>
<path d="M178.713 184.681C183.52 186.019 188.088 188.265 192.101 191.659C198.688 197.237 201.703 203.785 204.214 211.634C206.789 219.659 210.801 229.363 216.707 235.899C223.924 243.886 232.555 245.035 241.577 248.341C233.867 245.514 225.274 240.063 220.934 232.656C218.688 228.808 216.795 225.375 215.47 221.148C213.098 213.59 212.543 205.867 210.006 198.372C208.038 192.568 205.842 187.685 201.88 182.789C198.461 178.574 193.325 175.596 188.189 173.994" stroke="#3E3025" stroke-width="1.92" stroke-linecap="round" stroke-linejoin="round"/>
<path d="M110.107 103.533C104.997 102.246 100.126 99.9241 95.8865 96.3279C89.2997 90.7506 86.284 84.2017 83.7729 76.3531C81.1988 68.3279 77.1862 58.6244 71.2808 52.0881C64.0632 44.1007 55.4322 42.9525 46.4102 39.6465C54.1199 42.473 62.713 47.9241 67.0411 55.331C69.2997 59.1796 71.1799 62.6118 72.5048 66.8389C74.877 74.3973 75.4322 82.1197 77.9685 89.6149C79.937 95.432 82.1326 100.303 86.0947 105.199C89.6404 109.577 95.0284 112.631 100.341 114.183" stroke="#3E3025" stroke-width="1.92" stroke-linecap="round" stroke-linejoin="round"/>
<path d="M191.622 167.987C196.631 167.306 201.779 167.596 206.864 169.186C215.104 171.76 220.429 176.618 225.805 182.877C231.294 189.274 238.776 196.643 246.764 200.366C256.53 204.908 264.909 202.612 274.511 202.145C266.309 202.549 256.278 200.871 249.401 195.735C245.83 193.06 242.764 190.637 239.887 187.255C234.751 181.211 231.243 174.322 225.994 168.404C221.918 163.823 218.006 160.177 212.442 157.211C207.584 154.624 201.603 153.893 196.202 154.46" stroke="#3E3025" stroke-width="1.92" stroke-linecap="round" stroke-linejoin="round"/>
<path d="M96.8709 119.949C91.71 120.719 86.3851 120.467 81.1232 118.826C72.8835 116.252 67.5586 111.394 62.1832 105.136C56.6942 98.7381 49.2116 91.369 41.2242 87.6592C31.4576 83.1167 23.0791 85.4132 13.4766 85.8801C21.6785 85.4763 31.7226 87.1545 38.587 92.2902C42.1579 94.9652 45.2242 97.3879 48.1012 100.77C53.2368 106.814 56.7447 113.703 62.0065 119.621C66.0822 124.202 69.9939 127.849 75.5586 130.814C80.4671 133.426 86.5239 134.158 91.975 133.552" stroke="#3E3025" stroke-width="1.92" stroke-linecap="round" stroke-linejoin="round"/>
<path d="M194.195 127.129C197.249 122.928 201.148 119.306 205.981 116.719C213.59 112.644 220.782 112.24 229.009 112.77C237.426 113.325 247.912 113.136 256.164 110.032C266.246 106.246 270.473 98.6373 276.858 91.4575C271.407 97.59 263.18 103.596 254.7 104.909C250.284 105.59 246.41 106.082 241.981 105.767C234.069 105.211 226.7 102.89 218.788 102.499C212.656 102.196 207.318 102.448 201.312 104.353C195.949 106.044 191.129 109.943 187.735 114.309" stroke="#3E3025" stroke-width="1.92" stroke-linecap="round" stroke-linejoin="round"/>
<path d="M93.5649 161.199C90.5365 165.262 86.7258 168.757 82.0191 171.281C74.4103 175.356 67.2179 175.76 58.9907 175.23C50.5743 174.675 40.0885 174.864 31.8362 177.968C21.7542 181.754 17.527 189.363 11.1548 196.543C16.6059 190.41 24.833 184.404 33.3125 183.091C37.7163 182.41 41.6027 181.918 46.0318 182.221C53.9434 182.776 61.3125 185.098 69.2242 185.489C75.3567 185.792 80.6942 185.539 86.7005 183.634C91.874 182.006 96.5302 178.322 99.8993 174.132" stroke="#3E3025" stroke-width="1.92" stroke-linecap="round" stroke-linejoin="round"/>
<path d="M173.325 188.808C177.401 192.252 180.946 196.946 182.473 202.107C184.252 208.151 184.391 213.489 183.975 219.621C183.432 227.521 180.959 234.852 180.24 242.738C179.836 247.155 180.252 251.041 180.845 255.47C181.994 263.975 187.823 272.315 193.842 277.893C186.789 271.369 179.281 266.991 175.684 256.833C172.744 248.53 172.782 238.032 173.501 229.628C174.208 221.413 173.943 214.208 170.019 206.524C167.647 201.893 164.341 198.082 160.467 195.016" stroke="#3E3025" stroke-width="1.92" stroke-linecap="round" stroke-linejoin="round"/>
<path d="M115.344 99.7604C110.991 96.2778 107.142 91.3314 105.539 85.8803C103.76 79.8361 103.622 74.4986 104.038 68.3787C104.581 60.4797 107.054 53.1484 107.773 45.262C108.177 40.8456 107.76 36.9592 107.167 32.5301C106.019 24.0254 100.189 15.6847 94.1704 10.1074C101.224 16.6311 108.732 21.0096 112.328 31.1674C115.268 39.4828 115.23 49.9686 114.511 58.3724C113.804 66.5869 114.069 73.792 117.994 81.4765C120.543 86.4607 124.164 90.4986 128.416 93.6658" stroke="#3E3025" stroke-width="1.92" stroke-linecap="round" stroke-linejoin="round"/>
<path d="M120.189 191.962C120.833 196.883 120.555 201.943 119.003 206.94C116.454 215.18 111.609 220.53 105.363 225.918C98.9779 231.432 91.6341 238.927 87.9369 246.927C83.4196 256.706 85.7413 265.085 86.2334 274.675C85.8044 266.473 87.4574 256.429 92.5678 249.539C95.2303 245.956 97.6404 242.877 101.022 240C107.041 234.851 113.931 231.318 119.836 226.044C124.416 221.956 128.038 218.031 130.991 212.467C133.502 207.735 134.233 201.93 133.741 196.631" stroke="#3E3025" stroke-width="1.92" stroke-linecap="round" stroke-linejoin="round"/>
<path d="M167.962 97.085C167.13 91.8358 167.344 86.4099 169.01 81.0597C171.559 72.82 176.404 67.4698 182.65 62.0818C189.035 56.5676 196.379 49.0723 200.076 41.0723C204.593 31.2932 202.271 22.9146 201.779 13.3247C202.208 21.5266 200.555 31.5708 195.445 38.4604C192.783 42.0439 190.372 45.1228 186.991 47.9998C180.959 53.148 174.082 56.6812 168.177 61.9556C163.609 66.0439 159.975 69.9682 157.035 75.5329C154.372 80.5676 153.678 86.801 154.372 92.3531" stroke="#3E3025" stroke-width="1.92" stroke-linecap="round" stroke-linejoin="round"/>
<path d="M91.0912 139.546C90.9398 141.174 90.8389 142.814 90.8389 144.492C90.8389 147.723 91.1796 150.865 91.7222 153.931" stroke="#3E3025" stroke-width="1.92" stroke-linecap="round" stroke-linejoin="round"/>
<path d="M99.8736 174.12C97.2111 170.158 95.0913 165.804 93.5645 161.186" stroke="#3E3025" stroke-width="1.92" stroke-linecap="round" stroke-linejoin="round"/>
<path d="M91.7222 153.931C92.1638 156.416 92.7821 158.839 93.5518 161.199" stroke="#3E3025" stroke-width="1.92" stroke-linecap="round" stroke-linejoin="round"/>
<path d="M113.956 188.316C109.994 185.59 106.423 182.347 103.331 178.675" stroke="#3E3025" stroke-width="1.92" stroke-linecap="round" stroke-linejoin="round"/>
<path d="M103.319 178.675C102.095 177.224 100.934 175.71 99.8613 174.12" stroke="#3E3025" stroke-width="1.92" stroke-linecap="round" stroke-linejoin="round"/>
<path d="M110.107 103.533C111.76 102.158 113.527 100.921 115.331 99.7603" stroke="#3E3025" stroke-width="1.92" stroke-linecap="round" stroke-linejoin="round"/>
<path d="M96.8706 119.95C97.9179 117.943 99.0788 116.025 100.366 114.183" stroke="#3E3025" stroke-width="1.92" stroke-linecap="round" stroke-linejoin="round"/>
<path d="M110.107 103.533C106.397 106.612 103.117 110.196 100.366 114.17" stroke="#3E3025" stroke-width="1.92" stroke-linecap="round" stroke-linejoin="round"/>
<path d="M120.189 191.962C118.032 190.877 115.937 189.678 113.956 188.315" stroke="#3E3025" stroke-width="1.92" stroke-linecap="round" stroke-linejoin="round"/>
<path d="M91.0913 139.546C91.2806 137.514 91.5708 135.508 91.9872 133.54" stroke="#3E3025" stroke-width="1.92" stroke-linecap="round" stroke-linejoin="round"/>
<path d="M173.792 100.467C171.937 99.2048 169.968 98.107 167.962 97.085" stroke="#3E3025" stroke-width="1.92" stroke-linecap="round" stroke-linejoin="round"/>
<path d="M188.202 174.006C185.539 177.981 182.334 181.565 178.713 184.681" stroke="#3E3025" stroke-width="1.92" stroke-linecap="round" stroke-linejoin="round"/>
<path d="M196.189 154.448C195.281 159.217 193.716 163.747 191.622 167.987" stroke="#3E3025" stroke-width="1.92" stroke-linecap="round" stroke-linejoin="round"/>
<path d="M178.713 184.681C176.997 186.157 175.217 187.546 173.325 188.807" stroke="#3E3025" stroke-width="1.92" stroke-linecap="round" stroke-linejoin="round"/>
<path d="M194.196 127.129C192.606 122.549 190.448 118.246 187.748 114.334" stroke="#3E3025" stroke-width="1.92" stroke-linecap="round" stroke-linejoin="round"/>
<path d="M191.622 167.987C190.587 170.069 189.477 172.101 188.189 174.006" stroke="#3E3025" stroke-width="1.92" stroke-linecap="round" stroke-linejoin="round"/>
<path d="M96.8705 119.95C94.6623 124.177 92.9841 128.732 91.9746 133.54" stroke="#3E3025" stroke-width="1.92" stroke-linecap="round" stroke-linejoin="round"/>
<path d="M148.732 91.5708C150.637 91.7348 152.517 91.9872 154.36 92.3531" stroke="#3E3025" stroke-width="1.92" stroke-linecap="round" stroke-linejoin="round"/>
<path d="M139.849 197.426C141.224 197.527 142.599 197.64 144 197.64C147.47 197.64 150.852 197.287 154.133 196.644" stroke="#3E3025" stroke-width="1.92" stroke-linecap="round" stroke-linejoin="round"/>
<path d="M184.467 110.069C181.35 106.41 177.779 103.167 173.792 100.454" stroke="#3E3025" stroke-width="1.92" stroke-linecap="round" stroke-linejoin="round"/>
<path d="M173.325 188.808C169.375 191.42 165.06 193.514 160.479 195.016" stroke="#3E3025" stroke-width="1.92" stroke-linecap="round" stroke-linejoin="round"/>
<path d="M184.467 110.069C185.628 111.432 186.725 112.845 187.748 114.322" stroke="#3E3025" stroke-width="1.92" stroke-linecap="round" stroke-linejoin="round"/>
<path d="M128.391 93.6657C130.322 93.0726 132.303 92.6184 134.322 92.2524" stroke="#3E3025" stroke-width="1.92" stroke-linecap="round" stroke-linejoin="round"/>
<path d="M139.848 197.426C137.779 197.262 135.735 197.009 133.729 196.618" stroke="#3E3025" stroke-width="1.92" stroke-linecap="round" stroke-linejoin="round"/>
<path d="M115.344 99.7602C119.369 97.1734 123.735 95.0914 128.404 93.6655" stroke="#3E3025" stroke-width="1.92" stroke-linecap="round" stroke-linejoin="round"/>
<path d="M148.732 91.5708C147.167 91.432 145.603 91.3311 144 91.3311C140.694 91.3311 137.476 91.6718 134.334 92.2522" stroke="#3E3025" stroke-width="1.92" stroke-linecap="round" stroke-linejoin="round"/>
<path d="M133.729 196.631C128.946 195.697 124.417 194.082 120.177 191.962" stroke="#3E3025" stroke-width="1.92" stroke-linecap="round" stroke-linejoin="round"/>
<path d="M154.12 196.656C156.29 196.24 158.41 195.684 160.467 195.016" stroke="#3E3025" stroke-width="1.92" stroke-linecap="round" stroke-linejoin="round"/>
<path d="M196.959 148.429C197.06 147.129 197.161 145.817 197.161 144.492C197.161 140.946 196.795 137.489 196.139 134.145" stroke="#3E3025" stroke-width="1.92" stroke-linecap="round" stroke-linejoin="round"/>
<path d="M196.189 154.448C196.568 152.48 196.808 150.461 196.959 148.429" stroke="#3E3025" stroke-width="1.92" stroke-linecap="round" stroke-linejoin="round"/>
<path d="M154.347 92.3535C159.155 93.2999 163.71 94.9276 167.95 97.0854" stroke="#3E3025" stroke-width="1.92" stroke-linecap="round" stroke-linejoin="round"/>
<path d="M196.126 134.132C195.647 131.722 194.978 129.401 194.196 127.117" stroke="#3E3025" stroke-width="1.92" stroke-linecap="round" stroke-linejoin="round"/>
</g>
<defs>
<clipPath id="clip0_122_255">
<rect width="288" height="288" fill="white"/>
</clipPath>
</defs>
</svg>
