<svg width="266" height="279" viewBox="0 0 266 279" fill="none" xmlns="http://www.w3.org/2000/svg">
<g clip-path="url(#clip0_122_537)">
<path d="M118.105 115.624C113.48 124.034 106.032 128.131 97.4375 131.426" stroke="#3E3025" stroke-width="0.92" stroke-linecap="round" stroke-linejoin="round"/>
<path d="M107.926 131.772C104.321 136.032 98.1477 136.269 93.2676 138.053C89.3344 139.509 86.512 142.186 83.2708 144.643" stroke="#3E3025" stroke-width="0.92" stroke-linecap="round" stroke-linejoin="round"/>
<path d="M46.6337 142.659C44.0662 145.481 44.6307 149.14 42.7916 152.289C40.9525 155.421 37.7476 158.042 35.3076 160.791" stroke="#3E3025" stroke-width="0.92" stroke-linecap="round" stroke-linejoin="round"/>
<path d="M194.62 109.889C190.796 118.081 185.588 124.908 186.535 134.484" stroke="#3E3025" stroke-width="0.92" stroke-linecap="round" stroke-linejoin="round"/>
<path d="M197.442 125.6C194.492 128.95 192.617 134.703 191.743 138.999C191.124 142.022 191.943 145.408 190.505 148.23" stroke="#3E3025" stroke-width="0.92" stroke-linecap="round" stroke-linejoin="round"/>
<path d="M200.52 140.347C193.345 146.3 197.879 154.474 198.28 161.756" stroke="#3E3025" stroke-width="0.92" stroke-linecap="round" stroke-linejoin="round"/>
<path d="M206.365 158.734C204.617 164.669 207.002 175.065 210.444 179.762" stroke="#3E3025" stroke-width="0.92" stroke-linecap="round" stroke-linejoin="round"/>
<path d="M144.654 26.4527C125.88 25.7608 109.729 25.3057 91.9565 32.3877" stroke="#3E3025" stroke-width="0.92" stroke-linecap="round" stroke-linejoin="round"/>
<path d="M123.021 31.2041C108.982 31.4408 94.1052 33.6072 81.6501 40.5982" stroke="#3E3025" stroke-width="0.92" stroke-linecap="round" stroke-linejoin="round"/>
<path d="M106.232 37.2666C100.624 37.8492 93.3221 39.16 88.3875 41.7998" stroke="#3E3025" stroke-width="0.92" stroke-linecap="round" stroke-linejoin="round"/>
<path d="M175.446 31.6411C188.811 37.7036 201.212 44.8219 211.9 55.0352C219.639 62.4449 224.119 69.9638 229.035 79.3032" stroke="#3E3025" stroke-width="0.92" stroke-linecap="round" stroke-linejoin="round"/>
<path d="M193.382 50.5933C198.935 55.5452 206.947 60.406 210.99 66.5413C214.431 71.8027 217.928 77.7741 221.333 83.254" stroke="#3E3025" stroke-width="0.92" stroke-linecap="round" stroke-linejoin="round"/>
<path d="M201.23 65.376C207.13 69.2173 209.606 74.1146 213.813 79.5581" stroke="#3E3025" stroke-width="0.92" stroke-linecap="round" stroke-linejoin="round"/>
<path d="M57.6504 233.468C72.9279 247.049 88.5878 259.611 109.802 261.868" stroke="#3E3025" stroke-width="0.92" stroke-linecap="round" stroke-linejoin="round"/>
<path d="M50.4578 235.471C54.6095 240.568 60.4546 245.156 66.4272 247.869" stroke="#3E3025" stroke-width="0.92" stroke-linecap="round" stroke-linejoin="round"/>
<path d="M190.978 238.056C181.819 233.741 171.84 242.28 164.793 246.576" stroke="#3E3025" stroke-width="0.92" stroke-linecap="round" stroke-linejoin="round"/>
<path d="M185.916 243.754C174.972 243.372 162.79 253.039 156.126 261.049" stroke="#3E3025" stroke-width="0.92" stroke-linecap="round" stroke-linejoin="round"/>
<path d="M165.922 260.157C162.972 263.034 158.001 265.601 153.886 266.256" stroke="#3E3025" stroke-width="0.92" stroke-linecap="round" stroke-linejoin="round"/>
<path d="M254.018 153.746C257.296 164.906 251.597 177.413 246.771 187.262C243.22 194.508 239.542 204.484 234.152 210.456" stroke="#3E3025" stroke-width="0.92" stroke-linecap="round" stroke-linejoin="round"/>
<path d="M241.49 189.392C237.903 195.2 234.953 201.699 231.767 207.743" stroke="#3E3025" stroke-width="0.92" stroke-linecap="round" stroke-linejoin="round"/>
<path d="M248.865 120.757C235.008 118.026 223.7 134.284 216.198 143.296" stroke="#3E3025" stroke-width="0.92" stroke-linecap="round" stroke-linejoin="round"/>
<path d="M229.855 134.939C224.519 138.053 219.967 149.832 213.211 148.921" stroke="#3E3025" stroke-width="0.92" stroke-linecap="round" stroke-linejoin="round"/>
<path d="M215.032 203.793C215.688 208.49 222.717 211.13 226.413 212.914" stroke="#3E3025" stroke-width="0.92" stroke-linecap="round" stroke-linejoin="round"/>
<path d="M248.21 157.223C248.264 162.83 248.264 167.218 246.534 172.607" stroke="#3E3025" stroke-width="0.92" stroke-linecap="round" stroke-linejoin="round"/>
<path d="M223.299 117.808C226.595 115.933 229.855 114.385 233.533 113.384C239.706 111.709 245.041 113.202 251.25 112.692" stroke="#3E3025" stroke-width="0.92" stroke-linecap="round" stroke-linejoin="round"/>
<path d="M92.4116 119.483C87.9322 123.16 85.8381 127.512 84.345 132.991" stroke="#3E3025" stroke-width="0.92" stroke-linecap="round" stroke-linejoin="round"/>
<path d="M96.0171 101.587C98.1476 105.337 97.8198 110.69 95.3616 114.185" stroke="#3E3025" stroke-width="0.92" stroke-linecap="round" stroke-linejoin="round"/>
<path d="M82.2874 109.597C81.6501 120.065 66.6093 129.787 76.6243 140.182" stroke="#3E3025" stroke-width="0.92" stroke-linecap="round" stroke-linejoin="round"/>
<path d="M69.6684 132.682C68.4302 137.033 69.8141 141.312 70.3968 145.626C70.7609 148.284 71.8899 152.29 70.943 154.492" stroke="#3E3025" stroke-width="0.92" stroke-linecap="round" stroke-linejoin="round"/>
<path d="M71.3436 165.397C68.849 172.607 66.2086 178.305 59.9265 183.093C55.9933 186.079 52.0055 186.516 49.3469 191.122" stroke="#3E3025" stroke-width="0.92" stroke-linecap="round" stroke-linejoin="round"/>
<path d="M63.2588 170.513C58.6154 175.72 53.0252 179.07 47.7263 183.53" stroke="#3E3025" stroke-width="0.92" stroke-linecap="round" stroke-linejoin="round"/>
<path d="M61.0007 167.637C56.849 172.552 50.3484 174.555 46.3059 179.197" stroke="#3E3025" stroke-width="0.92" stroke-linecap="round" stroke-linejoin="round"/>
<path d="M215.797 247.541C184.496 273.119 143.853 282.277 105.777 274.23" stroke="#3E3025" stroke-width="2.12" stroke-linecap="round" stroke-linejoin="round"/>
<path d="M57.3591 38.9599C106.051 4.53324 173.698 6.6997 220.168 48.0445C237.375 63.3372 249.539 82.1617 256.677 102.443" stroke="#3E3025" stroke-width="2.12" stroke-linecap="round" stroke-linejoin="round"/>
<path d="M235.609 227.424C234.079 229.354 232.623 231.338 230.966 233.195C226.249 238.493 221.114 243.19 215.797 247.541" stroke="#3E3025" stroke-width="2.12" stroke-linecap="round" stroke-linejoin="round"/>
<path d="M105.759 274.23C84.1812 269.679 63.4227 259.702 45.7598 243.991C10.2154 212.368 -3.91491 165.762 4.11535 122.141" stroke="#3E3025" stroke-width="2.12" stroke-linecap="round" stroke-linejoin="round"/>
<path d="M256.677 102.442C271.208 143.787 264.452 191.14 235.609 227.423" stroke="#3E3025" stroke-width="2.12" stroke-linecap="round" stroke-linejoin="round"/>
<path d="M57.3589 38.96C49.3469 44.6219 41.7719 51.1759 34.9616 58.8404C18.4459 77.3919 8.32156 99.366 4.11523 122.141" stroke="#3E3025" stroke-width="2.12" stroke-linecap="round" stroke-linejoin="round"/>
<path d="M57.3589 38.96C59.4894 49.3371 67.9931 60.2969 73.9111 66.1226C85.1826 77.228 100.897 81.6156 113.316 91.1735C122.675 98.3829 131.416 112.601 126.263 124.999C121.291 136.979 105.814 140.165 95.7439 145.845C73.7108 158.297 80.7942 183.312 62.1115 198.586C38.6217 217.775 30.3001 191.067 27.3684 171.897C25.5839 160.227 28.6066 146.154 22.9435 135.049C18.9193 127.184 11.8906 123.761 4.11523 122.123" stroke="#3E3025" stroke-width="2.12" stroke-linecap="round" stroke-linejoin="round"/>
<path d="M164.083 2.54868C164.265 2.34842 164.447 2.14815 164.63 1.92969" stroke="#3E3025" stroke-width="2.12" stroke-linecap="round" stroke-linejoin="round"/>
<path d="M256.677 102.443C246.935 104.664 237.466 106.248 227.215 103.99C220.186 102.443 214.049 98.6741 207.112 96.9445C192.089 93.2124 183.185 95.7976 179.707 110.835C176.447 124.981 180.726 139.436 182.165 153.582C183.13 163.067 189.176 170.404 195.822 176.703C199.573 180.253 205.746 183.967 207.439 189.101C208.896 193.525 206.074 197.202 206.165 201.317C206.438 211.731 215.16 215.426 223.227 220.56C227.342 223.182 231.494 225.348 235.591 227.424" stroke="#3E3025" stroke-width="2.12" stroke-linecap="round" stroke-linejoin="round"/>
<path d="M215.797 247.541C204.562 236.326 190.104 222.563 175.81 228.498C163.555 233.595 159.258 249.58 149.935 257.863C139.009 267.567 121.911 269.97 108.381 273.411C107.471 273.648 106.615 273.939 105.777 274.23" stroke="#3E3025" stroke-width="2.12" stroke-linecap="round" stroke-linejoin="round"/>
<path d="M17.8269 117.025C22.1061 118.81 27.3139 122.396 30.1181 126.165C32.4671 129.314 32.7038 133.41 35.1621 136.651" stroke="#3E3025" stroke-width="0.92" stroke-linecap="round" stroke-linejoin="round"/>
<path d="M27.5869 115.514C32.7765 120.685 39.5686 126.001 41.4805 133.683C42.7188 138.69 40.5154 143.678 38.7127 148.193" stroke="#3E3025" stroke-width="0.92" stroke-linecap="round" stroke-linejoin="round"/>
<path d="M54.2452 55.2173C48.8916 58.3668 44.485 63.1185 40.2787 67.5971C36.564 71.5477 30.7189 76.0991 29.1165 81.4515" stroke="#3E3025" stroke-width="0.92" stroke-linecap="round" stroke-linejoin="round"/>
<path d="M44.0299 70.7285C35.508 77.1915 30.8283 87.0225 23.8359 94.7598" stroke="#3E3025" stroke-width="0.92" stroke-linecap="round" stroke-linejoin="round"/>
<path d="M33.0679 89.7896C29.5899 93.7584 27.1317 97.3995 24.5642 102.042" stroke="#3E3025" stroke-width="0.92" stroke-linecap="round" stroke-linejoin="round"/>
<path d="M78.8094 99.73C76.2965 105.519 74.3845 108.541 68.5576 111.818C64.151 114.294 58.6882 116.133 53.8992 113.566" stroke="#3E3025" stroke-width="0.92" stroke-linecap="round" stroke-linejoin="round"/>
<path d="M62.2754 69.8003C63.5682 85.7666 85.0733 88.9889 88.8972 104.227C90.445 110.38 90.2811 114.076 85.9109 118.882C81.0855 124.18 78.518 127.985 80.0658 135.34" stroke="#3E3025" stroke-width="0.92" stroke-linecap="round" stroke-linejoin="round"/>
<path d="M82.7607 85.8208C86.3662 89.0978 89.4799 92.3566 92.2295 96.4346" stroke="#3E3025" stroke-width="0.92" stroke-linecap="round" stroke-linejoin="round"/>
</g>
<defs>
<clipPath id="clip0_122_537">
<rect width="266" height="279" fill="white"/>
</clipPath>
</defs>
</svg>
