<svg width="55" height="154" viewBox="0 0 55 154" fill="none" xmlns="http://www.w3.org/2000/svg">
<g clip-path="url(#clip0_122_528)">
<path d="M45.2302 140.83L6.93018 15.48" stroke="#3E3025" stroke-width="2.26" stroke-linecap="round" stroke-linejoin="round"/>
<path d="M49.9198 141.18C52.7198 142.67 53.7798 146.15 52.2898 148.95C50.7998 151.75 47.3198 152.81 44.5198 151.32C41.7198 149.83 40.6598 146.35 42.1498 143.55C43.6398 140.75 47.1198 139.69 49.9198 141.18Z" stroke="#3E3025" stroke-width="2.26" stroke-linecap="round" stroke-linejoin="round"/>
<path d="M36.8301 113.16L49.6601 119.98" stroke="#3E3025" stroke-width="2.26" stroke-linecap="round" stroke-linejoin="round"/>
<path d="M34.2798 105.25L47.1098 112.07" stroke="#3E3025" stroke-width="2.26" stroke-linecap="round" stroke-linejoin="round"/>
<path d="M36.8802 113.61L30.6602 126.74" stroke="#3E3025" stroke-width="2.26" stroke-linecap="round" stroke-linejoin="round"/>
<path d="M34.5598 105.1L28.3398 118.23" stroke="#3E3025" stroke-width="2.26" stroke-linecap="round" stroke-linejoin="round"/>
<path d="M1.12988 1.12988L1.54988 24.8899L7.12988 16.1599L17.6299 18.8399L1.12988 1.12988Z" stroke="#3E3025" stroke-width="2.26" stroke-linecap="round" stroke-linejoin="round"/>
</g>
<defs>
<clipPath id="clip0_122_528">
<rect width="54.1" height="153.12" fill="white"/>
</clipPath>
</defs>
</svg>
