<svg width="133" height="24" viewBox="0 0 133 24" fill="none" xmlns="http://www.w3.org/2000/svg">
<path d="M116 24L127 24C130.313 24 133 21.3137 133 18V6C133 2.68629 130.313 -1.90735e-06 127 -1.90735e-06L116 -1.90735e-06C112.686 -1.90735e-06 110 2.68629 110 6V18C110 21.3137 112.686 24 116 24Z" fill="#FED1A7"/>
<path d="M125.831 9.01827C125.484 8.3614 125.011 8 124.5 8C123.989 8 123.516 8.3614 123.168 9.01827L123.146 9.05973C123.059 9.22519 123.087 9.42813 123.216 9.56359L123.384 9.73975C123.506 9.86782 123.718 9.83864 123.801 9.68229C124.19 8.94678 124.809 8.94678 125.198 9.68229C125.281 9.83864 125.493 9.86782 125.615 9.73975L125.783 9.56359C125.913 9.42813 125.941 9.22519 125.853 9.05973L125.831 9.01827Z" fill="black"/>
<path d="M118.831 9.01827C118.484 8.3614 118.011 8 117.5 8C116.989 8 116.516 8.3614 116.168 9.01827L116.146 9.05973C116.059 9.22519 116.087 9.42813 116.216 9.56359L116.384 9.73975C116.506 9.86782 116.718 9.83864 116.801 9.68229C117.19 8.94678 117.809 8.94678 118.198 9.68229C118.281 9.83864 118.493 9.86782 118.615 9.73975L118.783 9.56359C118.913 9.42813 118.941 9.22519 118.853 9.05973L118.831 9.01827Z" fill="black"/>
<path d="M117 13.1205C117 13.4247 117.036 13.7259 117.108 14.0157C117.302 14.8187 117.749 15.5283 118.4 16.0669C119.121 16.6687 120.045 17 121 17C121.955 17 122.878 16.6687 123.6 16.0675C124.251 15.5277 124.698 14.8187 124.892 14.0163C124.964 13.7259 125 13.4247 125 13.1205C125 13.0539 124.946 13 124.879 13H117.12C117.054 13 117 13.0539 117 13.1205Z" fill="black"/>
<path d="M6 24L17 24C20.3137 24 23 21.3137 23 18L23 6C23 2.68629 20.3137 0 17 0L6 0C2.68629 0 0 2.68629 0 6L0 18C0 21.3137 2.68629 24 6 24Z" fill="#655C53"/>
<path d="M5.84278 8.15733C5.63067 8.06714 5.38456 8.14795 5.26721 8.34632C5.12569 8.58553 5.22715 8.89463 5.48289 9.00344L5.5392 9.0274C5.95569 9.20461 5.95569 9.79493 5.5392 9.97214L5.48289 9.9961C5.22715 10.1049 5.12569 10.414 5.26721 10.6532C5.38456 10.8516 5.63067 10.9324 5.84278 10.8422L6.4295 10.5927C7.39342 10.1829 7.39342 8.81665 6.4295 8.4068L5.84278 8.15733Z" fill="black"/>
<path d="M17.5171 9.00344C17.7729 8.89463 17.8743 8.58553 17.7328 8.34632C17.6155 8.14795 17.3694 8.06714 17.1573 8.15733L16.5705 8.4068C15.6066 8.81665 15.6066 10.1829 16.5705 10.5927L17.1573 10.8422C17.3694 10.9324 17.6155 10.8516 17.7328 10.6532C17.8743 10.414 17.7729 10.1049 17.5171 9.9961L17.4608 9.97214C17.0443 9.79493 17.0443 9.20461 17.4608 9.0274L17.5171 9.00344Z" fill="black"/>
<path d="M14.4252 13.1648C14.4255 13.1648 14.4256 13.1645 14.4254 13.1644C13.6132 12.4133 12.5742 12 11.5007 12C10.4269 12 9.3877 12.4135 8.57543 13.1641C7.84346 13.8376 7.34044 14.7239 7.12144 15.7266C7.04115 16.0916 7 16.4665 7 16.8436C7 16.93 7.07003 17 7.15641 17H15.8436C15.93 17 16 16.93 16 16.8436C16 16.4665 15.9589 16.0916 15.8786 15.7266C15.6596 14.7248 15.1574 13.8387 14.4251 13.1653C14.4249 13.1651 14.425 13.1648 14.4252 13.1648Z" fill="black"/>
<path d="M61 24L72 24C75.3137 24 78 21.3137 78 18V6C78 2.68629 75.3137 -1.90735e-06 72 -1.90735e-06L61 -1.90735e-06C57.6863 -1.90735e-06 55 2.68629 55 6V18C55 21.3137 57.6863 24 61 24Z" fill="#655C53"/>
<path d="M63.5 16H69.5C69.7761 16 70 15.7761 70 15.5C70 15.2239 69.7761 15 69.5 15H63.5C63.2239 15 63 15.2239 63 15.5C63 15.7761 63.2239 16 63.5 16Z" fill="black"/>
<path d="M70.5 11C71.3284 11 72 10.3284 72 9.5C72 8.67157 71.3284 8 70.5 8C69.6716 8 69 8.67157 69 9.5C69 10.3284 69.6716 11 70.5 11Z" fill="black"/>
<path d="M62.5 11C63.3284 11 64 10.3284 64 9.5C64 8.67157 63.3284 8 62.5 8C61.6716 8 61 8.67157 61 9.5C61 10.3284 61.6716 11 62.5 11Z" fill="black"/>
<path d="M33 24L44 24C47.3137 24 50 21.3137 50 18V6C50 2.68629 47.3137 -1.90735e-06 44 -1.90735e-06L33 -1.90735e-06C29.6863 -1.90735e-06 27 2.68629 27 6L27 18C27 21.3137 29.6863 24 33 24Z" fill="#655C53"/>
<path d="M42.5 11C43.3284 11 44 10.3284 44 9.5C44 8.67157 43.3284 8 42.5 8C41.6716 8 41 8.67157 41 9.5C41 10.3284 41.6716 11 42.5 11Z" fill="black"/>
<path d="M34.5 11C35.3284 11 36 10.3284 36 9.5C36 8.67157 35.3284 8 34.5 8C33.6716 8 33 8.67157 33 9.5C33 10.3284 33.6716 11 34.5 11Z" fill="black"/>
<path d="M38.4997 14C37.4765 14 36.4534 14.2629 35.5895 14.7884C35.2667 14.9848 35.2666 15.4327 35.5565 15.675C35.7816 15.8632 36.1066 15.8583 36.3563 15.7043C37.6256 14.9217 39.374 14.9217 40.6437 15.7044C40.8934 15.8583 41.2184 15.8632 41.4434 15.6751C41.7334 15.4327 41.7333 14.9848 41.4104 14.7884C40.5464 14.2629 39.5229 14 38.5003 14H38.4997Z" fill="black"/>
<path d="M87.9998 24L98.9998 24C102.313 24 105 21.3137 105 18V6C105 2.68629 102.313 -1.90735e-06 98.9998 -1.90735e-06L87.9998 -1.90735e-06C84.686 -1.90735e-06 81.9998 2.68629 81.9998 6V18C81.9998 21.3137 84.686 24 87.9998 24Z" fill="#655C53"/>
<path d="M97.4998 11C98.3282 11 98.9998 10.3284 98.9998 9.5C98.9998 8.67157 98.3282 8 97.4998 8C96.6713 8 95.9998 8.67157 95.9998 9.5C95.9998 10.3284 96.6713 11 97.4998 11Z" fill="black"/>
<path d="M89.4998 11C90.3282 11 90.9998 10.3284 90.9998 9.5C90.9998 8.67157 90.3282 8 89.4998 8C88.6713 8 87.9998 8.67157 87.9998 9.5C87.9998 10.3284 88.6713 11 89.4998 11Z" fill="black"/>
<path d="M93.5001 17C94.5232 17 95.5464 16.7371 96.4102 16.2116C96.7331 16.0152 96.7332 15.5673 96.4432 15.325C96.2182 15.1368 95.8931 15.1417 95.6435 15.2957C94.3741 16.0783 92.6258 16.0783 91.356 15.2956C91.1064 15.1417 90.7814 15.1368 90.5563 15.3249C90.2664 15.5673 90.2665 16.0152 90.5894 16.2116C91.4534 16.7371 92.4768 17 93.4994 17H93.5001Z" fill="black"/>
</svg>
