<svg width="56" height="52" viewBox="0 0 56 52" fill="none" xmlns="http://www.w3.org/2000/svg">
<path d="M48.5211 28.5753C48.5211 36.6028 43.8964 43.5192 37.2071 46.7286C34.4083 45.9503 32.5129 44.7184 31.817 43.1301C31.0204 41.3052 32.1312 39.6401 32.8654 38.8168L34.7477 36.6858H31.9298C27.5559 36.6858 24.6946 38.6642 21.6571 40.7564C20.0951 41.8347 18.388 43.0154 16.261 44.0681C11.8679 40.3867 9.06912 34.8159 9.06912 28.5753C9.06912 20.0952 14.2467 12.847 21.5635 9.91211C19.2733 12.4517 17.8794 15.827 17.8794 19.5474C17.8794 27.4335 24.1739 33.8277 31.9298 33.8277C39.6856 33.8277 45.9801 27.4346 45.9801 19.5474C45.9801 19.2535 45.9741 18.9667 45.9489 18.68C47.5865 21.5965 48.5221 24.9779 48.5221 28.5764L48.5211 28.5753Z" fill="white"/>
<path d="M56 48.0826C31.9288 51.6904 27.2044 43.2973 31.9288 37.96C22.1134 37.96 20.9995 48.6367 0 48.6367C0 48.6367 7.10625 49.7006 20.3106 48.0837C21.4517 47.9434 25.4701 47.2798 24.9776 48.0837C24.3411 49.1221 19.3811 50.4963 19.1444 50.9018C17.8814 53.0585 46.6146 52.0006 56.001 48.0837L56 48.0826Z" fill="#FED1A7"/>
<path d="M34.3006 11.568L35.9291 12.0145L34.3006 12.4599L33.8625 14.1158L33.4234 12.4599L31.7949 12.0145L33.4234 11.568L33.8625 9.91211L34.3006 11.568Z" fill="#CC925D"/>
<path d="M25.2637 20.9801L26.0835 21.2043L25.2637 21.4286L25.0431 22.2622L24.8225 21.4286L24.0027 21.2043L24.8225 20.9801L25.0431 20.1465L25.2637 20.9801Z" fill="#CC925D"/>
<path d="M44.8763 4.7281L45.6951 4.95237L44.8763 5.17664L44.6548 6.01021L44.4342 5.17664L43.6154 4.95237L44.4342 4.7281L44.6548 3.89453L44.8763 4.7281Z" fill="#CC925D"/>
<path d="M7.71354 13.8379L8.2735 13.9905L7.71354 14.1441L7.56348 14.7125L7.41241 14.1441L6.85345 13.9905L7.41241 13.8379L7.56348 13.2686L7.71354 13.8379Z" fill="#CC925D"/>
<path d="M30.3496 0.568345L30.9086 0.721952L30.3496 0.874535L30.1986 1.44288L30.0485 0.874535L29.4896 0.721952L30.0485 0.568345L30.1986 0L30.3496 0.568345Z" fill="#CC925D"/>
<path d="M38.5929 21.8643L39.1529 22.0169L38.5929 22.1705L38.4429 22.7388L38.2918 22.1705L37.7328 22.0169L38.2918 21.8643L38.4429 21.2949L38.5929 21.8643Z" fill="#CC925D"/>
<path d="M54.8005 9.7578L55.3595 9.91141L54.8005 10.064L54.6504 10.6334L54.4994 10.064L53.9404 9.91141L54.4994 9.7578L54.6504 9.18945L54.8005 9.7578Z" fill="#CC925D"/>
<path d="M53.5859 21.0042L54.6504 21.2951L53.5859 21.5869L53.2999 22.6683L53.0139 21.5869L51.9493 21.2951L53.0139 21.0042L53.2999 19.9229L53.5859 21.0042Z" fill="#CC925D"/>
<path d="M18.5743 3.28842L19.6388 3.57925L18.5743 3.8711L18.2883 4.9525L18.0013 3.8711L16.9377 3.57925L18.0013 3.28842L18.2883 2.20703L18.5743 3.28842Z" fill="#CC925D"/>
</svg>
