<svg width="243" height="52" viewBox="0 0 243 52" fill="none" xmlns="http://www.w3.org/2000/svg">
<path d="M231.094 32.8608L226.252 38.9738C226.078 39.2024 225.896 39.4378 225.708 39.6799C225.533 39.922 225.371 40.1574 225.224 40.386C225.089 40.6147 224.975 40.8299 224.881 41.0316C224.8 41.2334 224.759 41.4015 224.759 41.536H221.37V41.4553C221.585 41.267 221.881 40.9846 222.258 40.608C222.648 40.2314 223.058 39.7673 223.488 39.2159L229.844 31.1661L223.61 22.733C223.26 22.2757 222.917 21.8857 222.581 21.5629C222.244 21.2401 221.996 21.0384 221.834 20.9577V20.877H227.362C227.362 21.1056 227.443 21.4687 227.604 21.9664C227.779 22.4506 228.115 23.0357 228.613 23.7216L232.043 28.4022L235.957 23.4392C236.118 23.224 236.279 22.9953 236.441 22.7532C236.616 22.5111 236.764 22.2757 236.885 22.0471C237.019 21.805 237.127 21.5831 237.207 21.3813C237.288 21.1796 237.328 21.0115 237.328 20.877H240.718V20.9577C240.529 21.1056 240.294 21.3208 240.012 21.6032C239.729 21.8857 239.359 22.3161 238.902 22.8944L233.273 30.0565L240.052 39.2159C240.509 39.8211 240.933 40.3188 241.323 40.7088C241.713 41.0989 241.996 41.3477 242.17 41.4553V41.536H236.663C236.663 41.3074 236.575 40.9442 236.4 40.4466C236.226 39.9355 235.903 39.3504 235.432 38.6913L231.094 32.8608Z" fill="white"/>
<path d="M210.718 41.899C209.225 41.899 207.826 41.6636 206.522 41.1929C205.217 40.7221 204.08 40.0362 203.112 39.1351C202.144 38.2205 201.377 37.0974 200.812 35.7659C200.261 34.4209 199.985 32.8876 199.985 31.166C199.985 29.6462 200.24 28.2406 200.752 26.9494C201.263 25.6448 201.969 24.515 202.87 23.5601C203.771 22.6051 204.82 21.8587 206.017 21.3207C207.228 20.7827 208.532 20.5137 209.931 20.5137C211.316 20.5137 212.601 20.7558 213.784 21.24C214.968 21.7107 215.99 22.4034 216.851 23.318C217.725 24.2191 218.411 25.3422 218.909 26.6872C219.42 28.0187 219.696 29.5386 219.736 31.2467C218.216 31.2198 216.696 31.1996 215.177 31.1862C213.657 31.1727 212.076 31.166 210.435 31.166C209.265 31.166 208.122 31.1727 207.006 31.1862C205.903 31.1996 204.908 31.2198 204.02 31.2467C204.101 32.6455 204.316 33.9098 204.665 35.0396C205.029 36.1694 205.519 37.1377 206.138 37.9447C206.77 38.7383 207.53 39.3503 208.418 39.7807C209.319 40.211 210.335 40.4262 211.464 40.4262C212.244 40.4262 212.977 40.3388 213.663 40.164C214.363 39.9757 214.995 39.7201 215.56 39.3973C216.125 39.0745 216.629 38.6979 217.073 38.2675C217.517 37.8237 217.893 37.3462 218.203 36.8351L218.445 36.9562L216.952 40.5473C216.226 40.9239 215.358 41.2467 214.349 41.5157C213.341 41.7712 212.13 41.899 210.718 41.899ZM208.035 29.5924C209.38 29.5924 210.725 29.5924 212.07 29.5924C213.428 29.5789 214.659 29.552 215.762 29.5117C215.641 28.3415 215.412 27.2924 215.076 26.3644C214.739 25.4363 214.309 24.6495 213.784 24.0039C213.26 23.3583 212.641 22.8607 211.928 22.511C211.216 22.1613 210.429 21.9864 209.568 21.9864C208.788 21.9864 208.068 22.1613 207.409 22.511C206.764 22.8472 206.199 23.3382 205.715 23.9837C205.23 24.6293 204.84 25.4229 204.544 26.3644C204.248 27.2924 204.074 28.355 204.02 29.552C204.625 29.5789 205.264 29.5924 205.936 29.5924C206.609 29.5924 207.308 29.5924 208.035 29.5924Z" fill="white"/>
<path d="M172.043 12.6055L192.823 34.7171V20.514C192.823 19.3708 192.809 18.3755 192.782 17.5281C192.755 16.6673 192.715 15.9276 192.661 15.3089C192.608 14.6768 192.54 14.1522 192.46 13.7353C192.392 13.3183 192.318 12.9686 192.238 12.6862V12.6055H195.829V12.6862C195.748 12.9686 195.674 13.3183 195.607 13.7353C195.54 14.1522 195.479 14.6768 195.425 15.3089C195.372 15.9276 195.331 16.6673 195.304 17.5281C195.277 18.3755 195.264 19.3708 195.264 20.514V41.9397H194.558L173.778 19.8482V33.6478C173.778 34.7911 173.791 35.7931 173.818 36.6539C173.845 37.5012 173.885 38.2343 173.939 38.8529C173.993 39.4716 174.053 39.9895 174.121 40.4064C174.188 40.8234 174.262 41.1731 174.343 41.4555V41.5362H170.751V41.4555C170.832 41.1731 170.906 40.8234 170.973 40.4064C171.054 39.9895 171.121 39.4716 171.175 38.8529C171.229 38.2343 171.269 37.5012 171.296 36.6539C171.323 35.7931 171.337 34.7911 171.337 33.6478V20.514C171.337 19.3708 171.323 18.3755 171.296 17.5281C171.269 16.6673 171.229 15.9276 171.175 15.3089C171.121 14.6768 171.054 14.1522 170.973 13.7353C170.906 13.3183 170.832 12.9686 170.751 12.6862V12.6055H172.043Z" fill="white"/>
<path d="M144.585 31.166C144.585 29.6462 144.867 28.2406 145.432 26.9494C145.997 25.6448 146.77 24.515 147.752 23.5601C148.747 22.6051 149.918 21.8587 151.263 21.3207C152.608 20.7827 154.053 20.5137 155.6 20.5137C157.12 20.5137 158.546 20.7692 159.877 21.2803C161.222 21.778 162.392 22.4908 163.388 23.4188C164.383 24.3469 165.163 25.4767 165.728 26.8082C166.306 28.1398 166.595 29.6327 166.595 31.287C166.595 32.6724 166.353 34.0039 165.869 35.2817C165.385 36.5594 164.672 37.6892 163.731 38.671C162.789 39.6529 161.632 40.4397 160.261 41.0315C158.902 41.6098 157.335 41.899 155.56 41.899C154.053 41.899 152.634 41.6502 151.303 41.1525C149.971 40.6549 148.808 39.9421 147.813 39.014C146.817 38.086 146.031 36.9629 145.452 35.6448C144.874 34.3133 144.585 32.8203 144.585 31.166ZM156.024 40.4262C156.979 40.4262 157.853 40.2379 158.647 39.8614C159.454 39.4848 160.146 38.94 160.725 38.2272C161.303 37.5143 161.754 36.6468 162.076 35.6246C162.399 34.6024 162.561 33.4457 162.561 32.1546C162.561 30.702 162.406 29.357 162.096 28.1196C161.787 26.8687 161.323 25.7928 160.704 24.8916C160.099 23.977 159.333 23.2642 158.404 22.7531C157.476 22.242 156.394 21.9864 155.156 21.9864C154.201 21.9864 153.327 22.1747 152.534 22.5513C151.74 22.9145 151.047 23.4457 150.456 24.1451C149.877 24.8445 149.427 25.7053 149.104 26.7275C148.781 27.7363 148.62 28.8862 148.62 30.1774C148.62 31.63 148.774 32.9817 149.084 34.2326C149.407 35.4834 149.877 36.5729 150.496 37.5009C151.115 38.4155 151.881 39.1351 152.796 39.6596C153.724 40.1707 154.8 40.4262 156.024 40.4262Z" fill="white"/>
<path d="M130.059 28.7655C130.059 27.6223 130.039 26.627 129.998 25.7796C129.971 24.9188 129.931 24.1791 129.877 23.5604C129.837 22.9417 129.776 22.4239 129.696 22.0069C129.628 21.59 129.554 21.2403 129.474 20.9578V20.8771H134.134V20.9578C134.027 21.2672 133.932 21.6438 133.852 22.0876C133.784 22.5315 133.731 23.1031 133.69 23.8025C134.188 23.3855 134.706 22.9753 135.244 22.5718C135.782 22.1683 136.333 21.8119 136.898 21.5026C137.463 21.1932 138.035 20.9444 138.613 20.7561C139.205 20.5678 139.797 20.4736 140.388 20.4736C140.751 20.4736 141.068 20.4938 141.337 20.5342C141.606 20.5611 141.848 20.6081 142.063 20.6754C142.278 20.7292 142.473 20.7964 142.648 20.8771C142.823 20.9444 142.991 21.0116 143.152 21.0789L142.164 24.9323L141.821 24.8516C141.659 24.2598 141.357 23.789 140.913 23.4393C140.469 23.0762 139.864 22.8946 139.097 22.8946C138.68 22.8946 138.243 22.9686 137.786 23.1165C137.328 23.2645 136.864 23.473 136.394 23.742C135.923 23.9975 135.452 24.3001 134.981 24.6498C134.511 24.9861 134.053 25.3425 133.61 25.7191C133.583 26.1091 133.569 26.5328 133.569 26.9901C133.569 27.4474 133.569 27.9316 133.569 28.4427V33.6478C133.569 34.791 133.583 35.7931 133.61 36.6539C133.636 37.5012 133.677 38.2342 133.731 38.8529C133.784 39.4716 133.845 39.9894 133.912 40.4064C133.979 40.8233 134.053 41.173 134.134 41.4555V41.5362H129.474V41.4555C129.554 41.173 129.628 40.8233 129.696 40.4064C129.776 39.9894 129.837 39.4716 129.877 38.8529C129.931 38.2342 129.971 37.5012 129.998 36.6539C130.039 35.7931 130.059 34.791 130.059 33.6478V28.7655Z" fill="white"/>
<path d="M121.505 40.3458C121.908 40.3458 122.305 40.2718 122.695 40.1238C123.098 39.9759 123.482 39.7741 123.845 39.5186C124.222 39.263 124.578 38.9739 124.914 38.6511C125.264 38.3148 125.587 37.9651 125.883 37.602L126.084 37.7029L124.773 40.951C124.612 41.0317 124.41 41.1326 124.168 41.2536C123.939 41.3612 123.657 41.4621 123.32 41.5562C122.998 41.6638 122.614 41.7513 122.17 41.8185C121.727 41.8992 121.202 41.9396 120.597 41.9396C118.794 41.9396 117.389 41.4554 116.38 40.487C115.385 39.5051 114.887 37.9786 114.887 35.9073V22.4507L111.498 22.5717V20.7963C111.915 20.8232 112.413 20.8434 112.991 20.8569C113.569 20.8703 114.201 20.877 114.887 20.877C114.874 19.9221 114.847 19.0815 114.807 18.3552C114.78 17.6154 114.739 16.9766 114.686 16.4386C114.645 15.8871 114.591 15.4231 114.524 15.0465C114.457 14.6699 114.39 14.3538 114.322 14.0983V14.0176H118.983V14.0983C118.902 14.3538 118.828 14.6699 118.761 15.0465C118.694 15.4231 118.633 15.8804 118.579 16.4184C118.539 16.9564 118.499 17.5953 118.458 18.335C118.431 19.0613 118.411 19.9086 118.398 20.877C119.245 20.8636 120.072 20.8501 120.879 20.8367C121.7 20.8098 122.439 20.7829 123.098 20.756C123.771 20.7156 124.336 20.682 124.793 20.6551C125.264 20.6148 125.573 20.5811 125.721 20.5542L125.358 22.6121C124.672 22.5986 123.953 22.5784 123.199 22.5515C122.554 22.5246 121.814 22.5045 120.98 22.491C120.146 22.4776 119.285 22.4641 118.398 22.4507V36.331C118.398 37.1649 118.485 37.8441 118.66 38.3686C118.848 38.8797 119.084 39.2832 119.366 39.5791C119.662 39.875 119.992 40.0768 120.355 40.1844C120.731 40.292 121.115 40.3458 121.505 40.3458Z" fill="white"/>
<path d="M108.673 24.9317L108.391 24.972C108.297 24.6627 108.142 24.3331 107.927 23.9834C107.725 23.6337 107.456 23.3109 107.12 23.015C106.797 22.7191 106.4 22.477 105.93 22.2887C105.472 22.087 104.941 21.9861 104.336 21.9861C103.919 21.9861 103.522 22.0466 103.146 22.1677C102.782 22.2887 102.46 22.4703 102.177 22.7124C101.908 22.9411 101.693 23.2302 101.532 23.5799C101.37 23.9296 101.289 24.3399 101.289 24.8106C101.289 25.4696 101.491 26.1018 101.895 26.707C102.312 27.2988 102.829 27.8906 103.448 28.4824C104.067 29.0608 104.733 29.6458 105.445 30.2376C106.172 30.8294 106.844 31.4481 107.463 32.0937C108.082 32.7393 108.593 33.432 108.996 34.1717C109.413 34.898 109.622 35.6848 109.622 36.5322C109.622 37.2181 109.501 37.8906 109.259 38.5497C109.016 39.1953 108.64 39.7736 108.129 40.2847C107.631 40.7958 106.986 41.2128 106.192 41.5356C105.412 41.8449 104.477 41.9996 103.388 41.9996C102.742 41.9996 102.137 41.9391 101.572 41.818C101.02 41.697 100.509 41.549 100.039 41.3742C99.5813 41.1859 99.1644 40.9841 98.7878 40.7689C98.4246 40.5403 98.1018 40.3251 97.8194 40.1233L98.0211 36.2901H98.3439C98.4784 36.9222 98.6802 37.5006 98.9492 38.0251C99.2182 38.5497 99.5477 39.0002 99.9378 39.3768C100.341 39.74 100.799 40.0292 101.31 40.2444C101.821 40.4461 102.379 40.547 102.984 40.547C103.979 40.547 104.766 40.2713 105.345 39.7198C105.936 39.1684 106.232 38.4488 106.232 37.5611C106.232 36.8483 106.031 36.1959 105.627 35.6041C105.237 34.9989 104.739 34.4206 104.134 33.8691C103.529 33.3177 102.877 32.7662 102.177 32.2148C101.491 31.6633 100.846 31.0783 100.24 30.4596C99.6351 29.8274 99.1308 29.1415 98.7273 28.4017C98.3372 27.6485 98.1422 26.7945 98.1422 25.8395C98.1422 25.0594 98.2834 24.3466 98.5659 23.701C98.8618 23.0419 99.2653 22.4838 99.7764 22.0265C100.301 21.5557 100.92 21.1926 101.632 20.937C102.345 20.6815 103.125 20.5537 103.973 20.5537C105.089 20.5537 106.017 20.6748 106.757 20.9169C107.51 21.1455 108.082 21.3674 108.472 21.5826L108.673 24.9317Z" fill="white"/>
<path d="M91.3029 41.536V41.4553C91.3298 41.388 91.35 41.2872 91.3635 41.1527C91.3769 41.0182 91.3836 40.8971 91.3836 40.7895C91.3836 40.3726 91.3231 39.9153 91.2021 39.4176C91.0945 38.9065 90.8793 38.2744 90.5565 37.5212L88.1153 32.0336C87.3621 32.0067 86.3601 31.9933 85.1092 31.9933C83.8584 31.9933 82.5067 31.9933 81.0541 31.9933C79.9916 31.9933 78.9626 31.9933 77.9674 31.9933C76.9855 31.9933 76.0978 32.0067 75.3043 32.0336L72.9842 37.3598C72.7824 37.8574 72.5672 38.4022 72.3386 38.9939C72.1099 39.5857 71.9956 40.1843 71.9956 40.7895C71.9956 40.9644 72.009 41.1123 72.0359 41.2334C72.0628 41.341 72.0897 41.4149 72.1166 41.4553V41.536H68.001V41.4553C68.2431 41.1997 68.5457 40.7492 68.9088 40.1036C69.272 39.4445 69.6688 38.6241 70.0992 37.6422L81.6593 12H83.2733L94.2283 36.6537C94.4838 37.232 94.7461 37.7969 95.0151 38.3484C95.2975 38.8863 95.5598 39.3705 95.8019 39.8009C96.044 40.2313 96.2592 40.5945 96.4475 40.8904C96.6358 41.1863 96.7636 41.3746 96.8308 41.4553V41.536H91.3029ZM78.2296 30.2582C79.0097 30.2582 79.81 30.2582 80.6304 30.2582C81.4509 30.2448 82.2511 30.2381 83.0312 30.2381C83.8248 30.2246 84.5847 30.2179 85.311 30.2179C86.0373 30.2044 86.6963 30.191 87.2881 30.1775L81.619 17.3665L76.0507 30.2582H78.2296Z" fill="white"/>
<path d="M48.5211 28.5753C48.5211 36.6028 43.8964 43.5192 37.2071 46.7286C34.4083 45.9503 32.5129 44.7184 31.817 43.1301C31.0203 41.3052 32.1312 39.6401 32.8654 38.8168L34.7477 36.6858H31.9298C27.5558 36.6858 24.6946 38.6642 21.6571 40.7564C20.0951 41.8347 18.388 43.0154 16.2609 44.0681C11.8679 40.3867 9.06909 34.8159 9.06909 28.5753C9.06909 20.0952 14.2467 12.847 21.5634 9.91211C19.2732 12.4517 17.8794 15.827 17.8794 19.5474C17.8794 27.4335 24.1739 33.8277 31.9298 33.8277C39.6856 33.8277 45.9801 27.4346 45.9801 19.5474C45.9801 19.2535 45.9741 18.9667 45.9489 18.68C47.5865 21.5965 48.5221 24.9779 48.5221 28.5764L48.5211 28.5753Z" fill="white"/>
<path d="M56 48.0827C31.9288 51.6904 27.2044 43.2973 31.9288 37.96C22.1134 37.96 20.9995 48.6367 0 48.6367C0 48.6367 7.10625 49.7006 20.3106 48.0837C21.4517 47.9434 25.4701 47.2798 24.9776 48.0837C24.3411 49.1221 19.3811 50.4963 19.1444 50.9018C17.8814 53.0585 46.6146 52.0006 56.001 48.0837L56 48.0827Z" fill="#FED1A7"/>
<path d="M34.3006 11.568L35.9291 12.0145L34.3006 12.4599L33.8625 14.1158L33.4234 12.4599L31.7949 12.0145L33.4234 11.568L33.8625 9.91211L34.3006 11.568Z" fill="#CC925D"/>
<path d="M25.2637 20.9801L26.0835 21.2043L25.2637 21.4286L25.0431 22.2622L24.8225 21.4286L24.0027 21.2043L24.8225 20.9801L25.0431 20.1465L25.2637 20.9801Z" fill="#CC925D"/>
<path d="M44.8763 4.7281L45.6951 4.95237L44.8763 5.17664L44.6548 6.01021L44.4342 5.17664L43.6154 4.95237L44.4342 4.7281L44.6548 3.89453L44.8763 4.7281Z" fill="#CC925D"/>
<path d="M7.71354 13.8379L8.2735 13.9905L7.71354 14.1441L7.56348 14.7125L7.41241 14.1441L6.85345 13.9905L7.41241 13.8379L7.56348 13.2686L7.71354 13.8379Z" fill="#CC925D"/>
<path d="M30.3496 0.568345L30.9086 0.721952L30.3496 0.874535L30.1986 1.44288L30.0485 0.874535L29.4896 0.721952L30.0485 0.568345L30.1986 0L30.3496 0.568345Z" fill="#CC925D"/>
<path d="M38.5929 21.8643L39.1529 22.0169L38.5929 22.1705L38.4429 22.7388L38.2918 22.1705L37.7328 22.0169L38.2918 21.8643L38.4429 21.2949L38.5929 21.8643Z" fill="#CC925D"/>
<path d="M54.8005 9.7578L55.3595 9.91141L54.8005 10.064L54.6504 10.6334L54.4994 10.064L53.9404 9.91141L54.4994 9.7578L54.6504 9.18945L54.8005 9.7578Z" fill="#CC925D"/>
<path d="M53.5859 21.0042L54.6504 21.2951L53.5859 21.5869L53.2999 22.6683L53.0139 21.5869L51.9493 21.2951L53.0139 21.0042L53.2999 19.9229L53.5859 21.0042Z" fill="#CC925D"/>
<path d="M18.5743 3.28842L19.6388 3.57925L18.5743 3.8711L18.2883 4.9525L18.0013 3.8711L16.9377 3.57925L18.0013 3.28842L18.2883 2.20703L18.5743 3.28842Z" fill="#CC925D"/>
</svg>
