<svg width="42" height="32" viewBox="0 0 42 32" fill="none" xmlns="http://www.w3.org/2000/svg">
<path d="M36.39 14.4307C36.39 20.4512 32.9215 25.6384 27.9047 28.0454C25.8056 27.4617 24.3841 26.5377 23.8622 25.3465C23.2647 23.9779 24.0978 22.7291 24.6484 22.1117L26.0601 20.5134H23.9468C20.6664 20.5134 18.5205 21.9972 16.2425 23.5663C15.0709 24.375 13.7907 25.2605 12.1954 26.05C8.9007 23.289 6.80166 19.111 6.80166 14.4307C6.80166 8.07079 10.6848 2.63477 16.1722 0.433632C14.4546 2.33831 13.4092 4.86969 13.4092 7.6599C13.4092 13.5744 18.13 18.3699 23.9468 18.3699C29.7635 18.3699 34.4843 13.5752 34.4843 7.6599C34.4843 7.43948 34.4797 7.22443 34.4609 7.00939C35.689 9.1967 36.3907 11.7327 36.3907 14.4315L36.39 14.4307Z" fill="white"/>
<path d="M41.999 29.0614C23.946 31.7671 20.4028 25.4725 23.946 21.4696C16.5846 21.4696 15.7493 29.4769 0 29.4769C0 29.4769 5.32956 30.2749 15.2326 29.0622C16.0884 28.957 19.1021 28.4593 18.7328 29.0622C18.2554 29.841 14.5354 30.8716 14.3579 31.1758C13.4108 32.7932 34.9602 31.9999 41.9998 29.0622L41.999 29.0614Z" fill="#FED1A7"/>
</svg>
