<svg width="126" height="119" viewBox="0 0 126 119" fill="none" xmlns="http://www.w3.org/2000/svg">
<path d="M5 5L9.93536 6.64446C13.0171 7.6713 15.8173 9.40125 18.1143 11.6973C22.0384 15.6199 24.243 20.94 24.243 26.4873V27.4412M24.243 72.3235V27.4412M24.243 27.4412L34.623 14.4713C36.2457 12.4437 38.1717 10.6787 40.333 9.23841C44.4801 6.47475 49.3528 5 54.3371 5H57.5221C60.9463 5 64.3234 5.79691 67.386 7.32763L69.0398 8.15419C73.2131 10.24 76.3865 13.8975 77.8619 18.3221C78.4599 20.1153 78.7647 21.993 78.7647 23.8831V63.7891C78.7647 65.2018 78.8815 66.6121 79.1138 68.0055L80.6709 77.3442C81.0293 79.4939 81.6686 81.5734 82.5631 83.533M82.5631 83.533L87.2022 77.1568C87.9903 76.0735 88.8622 75.0536 89.8097 74.1065L93.217 70.7005C96.2845 67.6343 100.445 65.9118 104.783 65.9118H104.964C110.597 65.9118 115.817 68.866 118.715 73.6941C121.762 78.7703 121.762 85.112 118.715 90.1882C115.817 95.0164 110.597 97.9706 104.964 97.9706H102.931C97.725 97.9706 92.7326 95.9035 89.0518 92.2241L87.5677 90.7407C85.47 88.6438 83.7803 86.1994 82.5631 83.533ZM82.5631 83.533L64.8721 107.848C63.4639 109.784 61.6112 111.353 59.4698 112.423C57.3948 113.46 55.1068 114 52.787 114H40.2788" stroke="#FED1A7" stroke-width="10" stroke-linecap="round"/>
</svg>
