<svg width="317" height="291" viewBox="0 0 317 291" fill="none" xmlns="http://www.w3.org/2000/svg">
<g clip-path="url(#clip0_26_1349)">
<path d="M152.58 121.296C151.703 119.835 151.118 118.193 150.967 116.4C150.735 113.65 151.542 111.484 152.752 109.136C153.992 106.739 155.272 103.636 155.413 100.825C155.585 97.3795 153.891 95.1732 152.601 92.3826C153.71 94.7601 154.415 97.9437 153.72 100.593C153.357 101.973 153.004 103.172 152.348 104.432C151.179 106.678 149.556 108.552 148.427 110.819C147.56 112.582 146.945 114.174 146.743 116.178C146.551 117.992 147.096 119.936 147.973 121.498" stroke="#3E3025" stroke-width="1.36" stroke-linecap="round" stroke-linejoin="round"/>
<path d="M149.737 155.166C150.514 156.547 151.028 158.078 151.169 159.74C151.391 162.491 150.594 164.657 149.384 167.004C148.144 169.402 146.864 172.505 146.723 175.315C146.551 178.761 148.245 180.967 149.536 183.758C148.427 181.38 147.721 178.197 148.417 175.547C148.779 174.167 149.132 172.968 149.788 171.709C150.957 169.462 152.58 167.588 153.71 165.321C154.577 163.558 155.192 161.967 155.393 159.962C155.575 158.259 155.101 156.446 154.314 154.935" stroke="#3E3025" stroke-width="1.36" stroke-linecap="round" stroke-linejoin="round"/>
<path d="M168.016 139.491C169.437 138.665 171.02 138.121 172.744 137.979C175.497 137.748 177.664 138.554 180.013 139.763C182.413 141.002 185.518 142.281 188.331 142.422C191.779 142.594 193.987 140.901 196.78 139.612C194.4 140.72 191.214 141.425 188.563 140.73C187.182 140.367 185.982 140.015 184.722 139.36C182.473 138.191 180.598 136.569 178.33 135.441C176.565 134.574 174.972 133.96 172.966 133.758C171.192 133.577 169.316 134.091 167.764 134.917" stroke="#3E3025" stroke-width="1.36" stroke-linecap="round" stroke-linejoin="round"/>
<path d="M134.13 136.65C132.709 137.476 131.116 138.03 129.392 138.171C126.639 138.403 124.472 137.597 122.123 136.388C119.723 135.149 116.618 133.869 113.805 133.728C110.357 133.557 108.149 135.249 105.356 136.539C107.736 135.431 110.922 134.725 113.573 135.421C114.954 135.783 116.154 136.136 117.414 136.791C119.663 137.959 121.538 139.581 123.806 140.71C125.571 141.576 127.164 142.191 129.17 142.392C130.924 142.573 132.789 142.07 134.322 141.254" stroke="#3E3025" stroke-width="1.36" stroke-linecap="round" stroke-linejoin="round"/>
<path d="M164.023 127.22C164.437 125.588 165.183 124.036 166.322 122.686C168.107 120.581 170.204 119.614 172.714 118.808C175.285 117.982 178.39 116.702 180.477 114.808C183.038 112.501 183.401 109.741 184.46 106.849C183.552 109.318 181.808 112.068 179.439 113.448C178.209 114.174 177.11 114.768 175.749 115.201C173.329 115.957 170.859 116.138 168.459 116.954C166.604 117.589 165.042 118.284 163.469 119.553C162.057 120.692 161.079 122.435 160.585 124.147" stroke="#3E3025" stroke-width="1.36" stroke-linecap="round" stroke-linejoin="round"/>
<path d="M138.042 149.162C137.619 150.703 136.893 152.174 135.804 153.454C134.019 155.559 131.922 156.527 129.412 157.332C126.841 158.159 123.736 159.438 121.649 161.332C119.088 163.639 118.725 166.399 117.667 169.291C118.574 166.823 120.318 164.072 122.687 162.692C123.917 161.967 125.016 161.372 126.377 160.939C128.797 160.184 131.267 160.002 133.667 159.186C135.522 158.551 137.084 157.856 138.657 156.587C139.998 155.499 140.946 153.877 141.46 152.245" stroke="#3E3025" stroke-width="1.36" stroke-linecap="round" stroke-linejoin="round"/>
<path d="M162.178 151.086C163.721 151.509 165.183 152.235 166.463 153.323C168.57 155.106 169.538 157.201 170.345 159.71C171.171 162.279 172.452 165.382 174.347 167.467C176.656 170.026 179.418 170.389 182.312 171.447C179.842 170.54 177.089 168.797 175.708 166.43C174.982 165.201 174.387 164.102 173.954 162.742C173.198 160.325 173.016 157.856 172.2 155.459C171.575 153.595 170.869 152.043 169.599 150.472C168.5 149.122 166.856 148.165 165.213 147.661" stroke="#3E3025" stroke-width="1.36" stroke-linecap="round" stroke-linejoin="round"/>
<path d="M140.22 125.124C138.586 124.711 137.024 123.966 135.673 122.817C133.566 121.034 132.598 118.939 131.791 116.43C130.965 113.861 129.684 110.758 127.789 108.673C125.48 106.114 122.717 105.751 119.824 104.693C122.294 105.6 125.046 107.343 126.428 109.711C127.143 110.94 127.748 112.038 128.182 113.398C128.938 115.816 129.12 118.284 129.936 120.682C130.571 122.545 131.267 124.097 132.537 125.668C133.667 127.069 135.401 128.046 137.104 128.54" stroke="#3E3025" stroke-width="1.36" stroke-linecap="round" stroke-linejoin="round"/>
<path d="M166.312 145.747C167.915 145.525 169.568 145.616 171.192 146.13C173.833 146.956 175.537 148.507 177.251 150.512C179.005 152.557 181.405 154.915 183.955 156.103C187.081 157.554 189.763 156.819 192.838 156.668C190.216 156.798 187 156.265 184.802 154.622C183.653 153.766 182.675 152.99 181.758 151.912C180.114 149.978 178.995 147.772 177.311 145.888C176.011 144.417 174.751 143.258 172.976 142.311C171.424 141.485 169.508 141.254 167.774 141.435" stroke="#3E3025" stroke-width="1.36" stroke-linecap="round" stroke-linejoin="round"/>
<path d="M135.975 130.373C134.322 130.625 132.618 130.545 130.934 130.011C128.293 129.184 126.589 127.633 124.875 125.628C123.121 123.583 120.721 121.226 118.161 120.037C115.035 118.586 112.353 119.322 109.278 119.473C111.9 119.342 115.116 119.876 117.314 121.518C118.463 122.374 119.441 123.15 120.358 124.228C122.002 126.162 123.121 128.368 124.805 130.262C126.105 131.733 127.365 132.892 129.14 133.839C130.713 134.675 132.648 134.907 134.392 134.715" stroke="#3E3025" stroke-width="1.36" stroke-linecap="round" stroke-linejoin="round"/>
<path d="M167.139 132.67C168.117 131.32 169.367 130.172 170.909 129.336C173.339 128.026 175.648 127.905 178.279 128.076C180.971 128.258 184.328 128.197 186.97 127.2C190.196 125.991 191.547 123.553 193.594 121.256C191.849 123.22 189.218 125.135 186.506 125.558C185.095 125.779 183.854 125.93 182.433 125.83C179.902 125.648 177.543 124.913 175.013 124.782C173.047 124.691 171.343 124.772 169.417 125.376C167.703 125.92 166.161 127.159 165.072 128.56" stroke="#3E3025" stroke-width="1.36" stroke-linecap="round" stroke-linejoin="round"/>
<path d="M134.917 143.571C133.949 144.87 132.729 145.989 131.217 146.795C128.787 148.104 126.478 148.225 123.847 148.054C121.155 147.873 117.798 147.933 115.156 148.93C111.93 150.139 110.579 152.577 108.532 154.874C110.276 152.91 112.908 150.996 115.62 150.573C117.031 150.351 118.271 150.2 119.693 150.301C122.224 150.482 124.583 151.217 127.113 151.348C129.079 151.439 130.783 151.358 132.709 150.754C134.362 150.23 135.854 149.051 136.933 147.711" stroke="#3E3025" stroke-width="1.36" stroke-linecap="round" stroke-linejoin="round"/>
<path d="M160.454 152.406C161.755 153.504 162.894 155.005 163.378 156.657C163.943 158.592 163.993 160.304 163.862 162.259C163.691 164.787 162.894 167.135 162.662 169.653C162.531 171.064 162.662 172.313 162.854 173.724C163.217 176.444 165.092 179.113 167.018 180.897C164.759 178.811 162.35 177.411 161.211 174.157C160.273 171.497 160.283 168.142 160.515 165.452C160.737 162.823 160.656 160.516 159.406 158.058C158.65 156.577 157.591 155.358 156.351 154.371" stroke="#3E3025" stroke-width="1.36" stroke-linecap="round" stroke-linejoin="round"/>
<path d="M141.893 123.916C140.502 122.797 139.262 121.216 138.758 119.473C138.193 117.538 138.143 115.826 138.274 113.871C138.445 111.343 139.242 108.995 139.474 106.477C139.605 105.066 139.474 103.817 139.282 102.407C138.919 99.6865 137.044 97.0168 135.118 95.2336C137.377 97.3191 139.786 98.7194 140.926 101.973C141.863 104.633 141.853 107.988 141.621 110.678C141.399 113.307 141.48 115.614 142.73 118.072C143.547 119.664 144.706 120.954 146.067 121.971" stroke="#3E3025" stroke-width="1.36" stroke-linecap="round" stroke-linejoin="round"/>
<path d="M143.446 153.413C143.648 154.985 143.557 156.607 143.063 158.209C142.246 160.848 140.694 162.551 138.697 164.274C136.651 166.037 134.302 168.434 133.122 170.993C131.67 174.116 132.416 176.796 132.578 179.869C132.447 177.25 132.971 174.036 134.604 171.83C135.461 170.681 136.227 169.704 137.306 168.777C139.232 167.125 141.44 165.996 143.325 164.314C144.787 163.004 145.946 161.755 146.894 159.972C147.701 158.461 147.932 156.597 147.771 154.904" stroke="#3E3025" stroke-width="1.36" stroke-linecap="round" stroke-linejoin="round"/>
<path d="M158.74 123.059C158.468 121.377 158.539 119.644 159.073 117.931C159.89 115.292 161.442 113.589 163.439 111.866C165.485 110.103 167.834 107.706 169.014 105.147C170.466 102.024 169.72 99.3339 169.558 96.2712C169.689 98.8906 169.165 102.104 167.532 104.311C166.675 105.459 165.909 106.436 164.83 107.363C162.904 109.015 160.696 110.144 158.811 111.826C157.349 113.136 156.19 114.385 155.242 116.168C154.385 117.78 154.163 119.775 154.395 121.548" stroke="#3E3025" stroke-width="1.36" stroke-linecap="round" stroke-linejoin="round"/>
<path d="M134.13 136.65C134.08 137.174 134.05 137.697 134.05 138.231C134.05 139.269 134.161 140.266 134.332 141.254" stroke="#3E3025" stroke-width="1.36" stroke-linecap="round" stroke-linejoin="round"/>
<path d="M136.943 147.711C136.086 146.442 135.411 145.052 134.927 143.571" stroke="#3E3025" stroke-width="1.36" stroke-linecap="round" stroke-linejoin="round"/>
<path d="M134.332 141.244C134.473 142.039 134.665 142.815 134.917 143.571" stroke="#3E3025" stroke-width="1.36" stroke-linecap="round" stroke-linejoin="round"/>
<path d="M141.45 152.245C140.18 151.378 139.04 150.331 138.052 149.162" stroke="#3E3025" stroke-width="1.36" stroke-linecap="round" stroke-linejoin="round"/>
<path d="M138.042 149.162C137.649 148.699 137.276 148.215 136.933 147.701" stroke="#3E3025" stroke-width="1.36" stroke-linecap="round" stroke-linejoin="round"/>
<path d="M140.22 125.124C140.754 124.681 141.309 124.288 141.893 123.916" stroke="#3E3025" stroke-width="1.36" stroke-linecap="round" stroke-linejoin="round"/>
<path d="M135.975 130.373C136.308 129.729 136.681 129.114 137.094 128.53" stroke="#3E3025" stroke-width="1.36" stroke-linecap="round" stroke-linejoin="round"/>
<path d="M140.22 125.125C139.03 126.112 137.982 127.26 137.104 128.53" stroke="#3E3025" stroke-width="1.36" stroke-linecap="round" stroke-linejoin="round"/>
<path d="M143.446 153.414C142.751 153.071 142.085 152.688 141.45 152.245" stroke="#3E3025" stroke-width="1.36" stroke-linecap="round" stroke-linejoin="round"/>
<path d="M134.13 136.65C134.191 135.995 134.282 135.36 134.413 134.725" stroke="#3E3025" stroke-width="1.36" stroke-linecap="round" stroke-linejoin="round"/>
<path d="M160.606 124.147C160.011 123.744 159.386 123.392 158.74 123.069" stroke="#3E3025" stroke-width="1.36" stroke-linecap="round" stroke-linejoin="round"/>
<path d="M165.213 147.671C164.356 148.94 163.338 150.089 162.178 151.086" stroke="#3E3025" stroke-width="1.36" stroke-linecap="round" stroke-linejoin="round"/>
<path d="M167.774 141.415C167.482 142.946 166.988 144.387 166.312 145.747" stroke="#3E3025" stroke-width="1.36" stroke-linecap="round" stroke-linejoin="round"/>
<path d="M162.178 151.086C161.634 151.56 161.059 152.003 160.454 152.406" stroke="#3E3025" stroke-width="1.36" stroke-linecap="round" stroke-linejoin="round"/>
<path d="M167.139 132.67C166.634 131.209 165.939 129.829 165.072 128.58" stroke="#3E3025" stroke-width="1.36" stroke-linecap="round" stroke-linejoin="round"/>
<path d="M166.312 145.747C165.979 146.412 165.626 147.057 165.213 147.671" stroke="#3E3025" stroke-width="1.36" stroke-linecap="round" stroke-linejoin="round"/>
<path d="M135.975 130.373C135.27 131.723 134.735 133.184 134.413 134.725" stroke="#3E3025" stroke-width="1.36" stroke-linecap="round" stroke-linejoin="round"/>
<path d="M152.58 121.296C153.185 121.347 153.79 121.427 154.385 121.548" stroke="#3E3025" stroke-width="1.36" stroke-linecap="round" stroke-linejoin="round"/>
<path d="M149.737 155.166C150.181 155.197 150.614 155.237 151.068 155.237C152.177 155.237 153.256 155.126 154.315 154.925" stroke="#3E3025" stroke-width="1.36" stroke-linecap="round" stroke-linejoin="round"/>
<path d="M164.023 127.22C163.025 126.051 161.876 125.014 160.605 124.147" stroke="#3E3025" stroke-width="1.36" stroke-linecap="round" stroke-linejoin="round"/>
<path d="M160.454 152.406C159.194 153.242 157.813 153.907 156.341 154.391" stroke="#3E3025" stroke-width="1.36" stroke-linecap="round" stroke-linejoin="round"/>
<path d="M164.023 127.22C164.396 127.653 164.749 128.107 165.072 128.58" stroke="#3E3025" stroke-width="1.36" stroke-linecap="round" stroke-linejoin="round"/>
<path d="M146.067 121.971C146.682 121.78 147.318 121.639 147.963 121.518" stroke="#3E3025" stroke-width="1.36" stroke-linecap="round" stroke-linejoin="round"/>
<path d="M149.737 155.166C149.072 155.116 148.416 155.035 147.781 154.915" stroke="#3E3025" stroke-width="1.36" stroke-linecap="round" stroke-linejoin="round"/>
<path d="M141.894 123.916C143.184 123.089 144.575 122.424 146.078 121.961" stroke="#3E3025" stroke-width="1.36" stroke-linecap="round" stroke-linejoin="round"/>
<path d="M152.58 121.296C152.076 121.256 151.572 121.216 151.068 121.216C150.009 121.216 148.981 121.326 147.973 121.508" stroke="#3E3025" stroke-width="1.36" stroke-linecap="round" stroke-linejoin="round"/>
<path d="M147.781 154.904C146.249 154.602 144.797 154.088 143.446 153.413" stroke="#3E3025" stroke-width="1.36" stroke-linecap="round" stroke-linejoin="round"/>
<path d="M154.304 154.915C155 154.784 155.676 154.602 156.341 154.391" stroke="#3E3025" stroke-width="1.36" stroke-linecap="round" stroke-linejoin="round"/>
<path d="M168.016 139.491C168.046 139.078 168.076 138.654 168.076 138.231C168.076 137.093 167.955 135.995 167.744 134.917" stroke="#3E3025" stroke-width="1.36" stroke-linecap="round" stroke-linejoin="round"/>
<path d="M167.774 141.415C167.895 140.78 167.976 140.145 168.016 139.491" stroke="#3E3025" stroke-width="1.36" stroke-linecap="round" stroke-linejoin="round"/>
<path d="M154.385 121.548C155.928 121.85 157.379 122.374 158.74 123.059" stroke="#3E3025" stroke-width="1.36" stroke-linecap="round" stroke-linejoin="round"/>
<path d="M167.754 134.917C167.602 134.151 167.391 133.406 167.139 132.67" stroke="#3E3025" stroke-width="1.36" stroke-linecap="round" stroke-linejoin="round"/>
<path d="M239.335 156.809C221.309 138.987 199.401 120.51 174.861 103.001C98.4402 48.4581 25.6384 23.9369 12.2596 48.2364C4.59732 62.1492 17.0183 81.6735 24.4184 92.9065C48.8571 130.021 84.9001 167.125 123.534 189.5" stroke="#3E3025" stroke-width="1.2" stroke-linecap="round" stroke-linejoin="round"/>
<path d="M256.031 174.378C270.086 190.215 290.128 212.52 291.106 235.067C292.306 262.892 247.462 249.231 232.843 243.167C221.692 238.542 209.352 232.941 201.064 225.818" stroke="#3E3025" stroke-width="1.2" stroke-linecap="round" stroke-linejoin="round"/>
<path d="M105.246 233.002C125.601 219.31 148.779 201.982 172.694 182.257C203.524 156.809 230.201 131.814 249.266 111.151" stroke="#3E3025" stroke-width="1.8" stroke-linecap="round" stroke-linejoin="round"/>
<path d="M187.686 108.33C235.031 73.9665 272.505 54.543 279.109 62.532C283.061 67.3073 275.258 81.0891 259.237 99.9182" stroke="#3E3025" stroke-width="1.8" stroke-linecap="round" stroke-linejoin="round"/>
<path d="M83.1057 247.126C57.4874 262.469 39.3399 269.35 34.9341 264.021" stroke="#3E3025" stroke-width="1.2" stroke-linecap="round" stroke-linejoin="round"/>
<path d="M105.246 233.001C107.544 238.371 106.163 244.809 101.384 248.647C95.8291 253.11 87.814 252.365 83.1057 247.136" stroke="#3E3025" stroke-width="1.2" stroke-linecap="round" stroke-linejoin="round"/>
<path d="M105.246 233.002C104.772 231.903 104.207 230.836 103.421 229.858C98.7931 224.106 90.3747 223.189 84.6179 227.813C78.8611 232.437 77.9436 240.849 82.5712 246.602C82.7326 246.803 82.9241 246.945 83.0955 247.136" stroke="#3E3025" stroke-width="1.2" stroke-linecap="round" stroke-linejoin="round"/>
<path d="M249.276 111.141C251.978 113.347 255.941 113.458 258.763 111.181C262.01 108.582 262.524 103.837 259.913 100.603C259.711 100.351 259.469 100.14 259.237 99.9182" stroke="#3E3025" stroke-width="1.8" stroke-linecap="round" stroke-linejoin="round"/>
<path d="M259.237 99.9182C256.545 97.3291 252.311 97.047 249.317 99.4447C246.07 102.054 245.556 106.789 248.167 110.023C248.5 110.436 248.873 110.809 249.266 111.131" stroke="#3E3025" stroke-width="1.8" stroke-linecap="round" stroke-linejoin="round"/>
<path d="M80.0407 49.3747L95.2141 46.0905L80.0407 43.7734C78.0646 43.5719 76.5019 42.0103 76.3003 40.0357L74.0218 17.6L70.6947 40.0357C70.4931 42.0103 68.9304 43.5719 66.9543 43.7734L48.1011 46.5035L66.9543 49.3647C68.9304 49.5661 70.4931 51.1277 70.6947 53.1023L73.5379 74.1175L76.2902 53.1023C76.4919 51.1277 78.0546 49.5661 80.0306 49.3647L80.0407 49.3747Z" fill="#3E3025"/>
<path d="M149.021 277.168L157.5 275.334L149.021 274.045C147.912 273.934 147.045 273.057 146.934 271.959L145.664 259.427L143.809 271.959C143.698 273.068 142.821 273.934 141.722 274.045L131.197 275.576L141.722 277.178C142.831 277.289 143.698 278.165 143.809 279.263L145.402 291L146.945 279.263C147.055 278.155 147.933 277.289 149.032 277.178L149.021 277.168Z" fill="#3E3025"/>
<path d="M303.043 134.715L316.926 131.713L303.043 129.598C301.239 129.416 299.807 127.986 299.615 126.172L297.529 105.641L294.484 126.172C294.302 127.976 292.871 129.406 291.056 129.598L273.806 132.096L291.056 134.715C292.861 134.897 294.292 136.327 294.484 138.141L297.085 157.373L299.605 138.141C299.787 136.337 301.219 134.907 303.033 134.715H303.043Z" fill="#3E3025"/>
<path d="M36.1438 190.306L59.0198 187.797L38.3518 186.548L54.0897 167.81L33.9762 185.621L31.9195 151.59L29.9636 184.009L15.1129 172.283L26.7575 186.317L0 188.2L28.6832 190.608L9.18466 213.235L30.1753 195.172L32.8168 216.187L34.077 193.792L50.0367 208.48L36.1438 190.306Z" fill="#3E3025"/>
<path d="M289.624 218.001L302.086 216.631L290.824 215.956L299.404 205.74L288.445 215.452L287.326 196.905L286.257 214.565L278.161 208.178L284.503 215.825L269.924 216.852L285.551 218.162L274.925 230.493L286.358 220.65L287.8 232.105L288.485 219.905L297.186 227.904L289.614 218.001H289.624Z" fill="#3E3025"/>
<path d="M204.684 21.0959L217.155 19.7257L205.894 19.0508L214.474 8.83528L203.514 18.547L202.395 0L201.327 17.6605L193.231 11.2733L199.572 18.9198L184.994 19.9474L200.621 21.2571L189.995 33.5882L201.427 23.7454L202.869 35.2001L203.555 22.9999L212.255 30.999L204.684 21.0959Z" fill="#3E3025"/>
<path d="M109.339 124.721C93.631 129.325 78.4174 135.259 64.2926 143.772C50.5811 152.043 27.9774 166.792 33.5426 185.924C39.8236 207.503 70.0292 212.047 89.1244 212.802C127.335 214.303 166.171 209.961 203.242 200.713C226.672 194.86 249.548 186.649 268.886 171.809C284.664 159.69 300.775 140.377 293.657 119.13C288.515 103.787 271.255 93.8836 257.07 88.3427C228.719 77.2608 197.828 75.2459 167.703 76.9284C152.6 77.7746 137.649 79.7089 122.647 81.613C108.734 83.376 96.1818 87.7785 83.1256 92.8157" stroke="#3E3025" stroke-width="1.2" stroke-linecap="round" stroke-linejoin="round"/>
<path d="M85.5555 155.257C78.7804 157.484 67.8314 160.728 73.0942 169.21C76.3406 174.439 83.2971 176.675 89.0741 177.925C115.217 183.576 144.122 179.97 170.526 177.078C192.223 174.701 224.364 169.905 238.529 151.55C254.69 130.615 209.987 124.016 193.513 122.183C192.172 122.032 191.023 121.921 190.105 121.82" stroke="#3E3025" stroke-width="1.32" stroke-linecap="round" stroke-linejoin="round"/>
<path d="M209.513 75.4877C209.513 82.5096 203.817 88.2117 196.78 88.2117C189.742 88.2117 184.046 82.5196 184.046 75.4877C184.046 68.4557 189.742 62.7637 196.78 62.7637C203.817 62.7637 209.513 68.4557 209.513 75.4877Z" fill="#3E3025"/>
<path d="M202.174 202.305C202.174 205.287 199.754 207.705 196.77 207.705C193.785 207.705 191.366 205.287 191.366 202.305C191.366 199.323 193.785 196.905 196.77 196.905C199.754 196.905 202.174 199.323 202.174 202.305Z" fill="#3E3025"/>
<path d="M257.803 173.561C262.826 168.541 262.827 160.402 257.803 155.381C252.779 150.361 244.633 150.361 239.609 155.381C234.585 160.402 234.585 168.541 239.609 173.561C244.633 178.581 252.779 178.581 257.803 173.561Z" stroke="#3E3025" stroke-width="1.2" stroke-linecap="round" stroke-linejoin="round"/>
<path d="M115.459 83.3357C115.459 85.9349 113.352 88.0304 110.76 88.0304C108.169 88.0304 106.062 85.9248 106.062 83.3357C106.062 80.7466 108.169 78.641 110.76 78.641C113.352 78.641 115.459 80.7466 115.459 83.3357Z" fill="#3E3025"/>
<path d="M176.212 249.473C176.212 250.773 175.164 251.821 173.863 251.821C172.563 251.821 171.514 250.773 171.514 249.473C171.514 248.174 172.563 247.126 173.863 247.126C175.164 247.126 176.212 248.174 176.212 249.473Z" fill="#3E3025"/>
<path d="M28.2294 141.909C28.2294 143.208 27.1809 144.256 25.8803 144.256C24.5798 144.256 23.5312 143.208 23.5312 141.909C23.5312 140.609 24.5798 139.561 25.8803 139.561C27.1809 139.561 28.2294 140.609 28.2294 141.909Z" fill="#3E3025"/>
<path d="M231.371 36.5097C231.371 37.8093 230.322 38.857 229.022 38.857C227.721 38.857 226.673 37.8093 226.673 36.5097C226.673 35.2101 227.721 34.1624 229.022 34.1624C230.322 34.1624 231.371 35.2101 231.371 36.5097Z" fill="#3E3025"/>
<path d="M158.257 9.39947C158.257 10.6991 157.208 11.7468 155.907 11.7468C154.607 11.7468 153.558 10.6991 153.558 9.39947C153.558 8.09987 154.607 7.05212 155.907 7.05212C157.208 7.05212 158.257 8.09987 158.257 9.39947Z" fill="#3E3025"/>
</g>
<defs>
<clipPath id="clip0_26_1349">
<rect width="316.926" height="291" fill="white"/>
</clipPath>
</defs>
</svg>
