<svg width="518" height="188" viewBox="0 0 518 188" fill="none" xmlns="http://www.w3.org/2000/svg">
<g clip-path="url(#clip0_26_1427)">
<path d="M350.838 112.511C364.658 114.746 377.691 126.042 377.319 141.841C376.969 156.544 366.989 165.485 354.427 168.366C350.433 169.287 345.465 169.944 340.442 169.911" stroke="#3E3025" stroke-width="1.34" stroke-linecap="round" stroke-linejoin="round"/>
<path d="M350.837 112.511C345.158 111.59 339.337 112.16 334.27 114.636" stroke="#3E3025" stroke-width="1.34" stroke-linecap="round" stroke-linejoin="round"/>
<path d="M278.987 64.8834C293.891 63.492 309.682 66.3297 322.113 73.4404C334.194 80.3429 349.087 96.131 350.838 112.511" stroke="#3E3025" stroke-width="1.34" stroke-linecap="round" stroke-linejoin="round"/>
<path d="M270.692 114.231C279.118 123.894 275.08 135.804 263.47 136.834C253.468 137.721 245.01 127.652 241.114 118.58C232.874 99.352 240.851 77.3736 258.885 69.7041C265.068 67.0746 271.94 65.5517 278.998 64.8943" stroke="#3E3025" stroke-width="1.34" stroke-linecap="round" stroke-linejoin="round"/>
<path d="M278.987 64.8835C273.209 47.4191 257.977 34.6002 239.483 37.0434C233.487 37.8323 228.727 42.8832 226.046 48.942" stroke="#3E3025" stroke-width="1.34" stroke-linecap="round" stroke-linejoin="round"/>
<path d="M184.583 91.5949C180.425 101.751 175.873 108.61 164.12 105.805C157.981 104.337 153.166 98.8261 150.726 92.5481C146.677 82.1286 148.538 69.5946 154.458 60.2926C161.975 48.4707 175.326 41.7764 188.938 39.8262" stroke="#3E3025" stroke-width="1.34" stroke-linecap="round" stroke-linejoin="round"/>
<path d="M226.057 48.9529C220.924 45.414 216.755 42.2586 209.697 40.5823C203.241 39.0484 196.062 38.7964 188.949 39.8153" stroke="#3E3025" stroke-width="1.34" stroke-linecap="round" stroke-linejoin="round"/>
<path d="M75.6696 132.868C66.7731 128.617 61.9692 118.8 59.3101 108.38" stroke="#3E3025" stroke-width="1.34" stroke-linecap="round" stroke-linejoin="round"/>
<path d="M188.939 39.8153C180.042 16.4235 154.6 1.23801 132.244 0.744975C103.563 0.109507 77.3109 18.7901 64.4641 46.2248C58.161 59.6901 55.1627 74.9852 56.4211 90.0502C56.8916 95.6598 57.7123 102.113 59.299 108.369" stroke="#3E3025" stroke-width="1.34" stroke-linecap="round" stroke-linejoin="round"/>
<path d="M30.9134 128.923C26.3065 125.845 20.6928 124.793 13.569 127.356C2.11192 131.498 -2.51689 144.131 3.17337 155.799C12.5623 175.071 36.1441 179.443 54.2435 179.246C66.1164 179.114 79.1493 176.474 88.2319 168.925" stroke="#3E3025" stroke-width="1.34" stroke-linecap="round" stroke-linejoin="round"/>
<path d="M59.3099 108.38C57.4934 108.468 55.6878 108.643 53.9041 108.95C42.7644 110.933 34.5572 118.296 30.9023 128.923" stroke="#3E3025" stroke-width="1.34" stroke-linecap="round" stroke-linejoin="round"/>
<path d="M29.0312 136.965C29.3486 134.095 30.038 131.443 30.9025 128.923" stroke="#3E3025" stroke-width="1.34" stroke-linecap="round" stroke-linejoin="round"/>
<path d="M369.418 130.896C368.598 123.215 359.231 117.89 352.807 117.803" stroke="#3E3025" stroke-width="1.34" stroke-linecap="round" stroke-linejoin="round"/>
<path d="M344.83 117.09C339.49 118.076 327.398 124.037 326.282 129.537" stroke="#3E3025" stroke-width="1.34" stroke-linecap="round" stroke-linejoin="round"/>
<path d="M270.736 105.115C280.42 107.58 282.423 120.914 281.471 130.118" stroke="#3E3025" stroke-width="1.34" stroke-linecap="round" stroke-linejoin="round"/>
<path d="M285.914 111.853C288.398 120.41 288.442 139.671 277.181 141.348" stroke="#3E3025" stroke-width="1.34" stroke-linecap="round" stroke-linejoin="round"/>
<path d="M270.528 143.254C264.116 142.937 253.512 143.386 248.325 138.379" stroke="#3E3025" stroke-width="1.34" stroke-linecap="round" stroke-linejoin="round"/>
<path d="M316.751 78.5241C311.137 72.6515 302.076 71.8297 294.734 71.1724" stroke="#3E3025" stroke-width="1.34" stroke-linecap="round" stroke-linejoin="round"/>
<path d="M287.479 70.9424C281.132 71.3039 275.868 73.0022 269.653 73.9225" stroke="#3E3025" stroke-width="1.34" stroke-linecap="round" stroke-linejoin="round"/>
<path d="M266.02 56.184C263.547 50.2128 258.316 46.2904 252.232 46.2466" stroke="#3E3025" stroke-width="1.34" stroke-linecap="round" stroke-linejoin="round"/>
<path d="M221.997 56.4143C216.569 65.1356 218.736 78.6338 222.697 87.5742" stroke="#3E3025" stroke-width="1.34" stroke-linecap="round" stroke-linejoin="round"/>
<path d="M191.827 45.436C187.374 45.1511 181.158 48.3175 177.033 49.9938C173.356 51.4948 168.486 55.0556 165.444 57.8057C161.002 61.8157 155.421 71.9175 157.598 78.053" stroke="#3E3025" stroke-width="1.34" stroke-linecap="round" stroke-linejoin="round"/>
<path d="M163.015 72.3228C162.457 79.6526 160.892 89.7105 167.447 94.6956" stroke="#3E3025" stroke-width="1.34" stroke-linecap="round" stroke-linejoin="round"/>
<path d="M186.323 98.0264C184.102 104.041 181.465 109.289 174.68 110.265" stroke="#3E3025" stroke-width="1.34" stroke-linecap="round" stroke-linejoin="round"/>
<path d="M189.573 90.4445C190.241 86.3578 188.162 80.1565 186.006 76.8586" stroke="#3E3025" stroke-width="1.34" stroke-linecap="round" stroke-linejoin="round"/>
<path d="M183.03 70.7779C181.574 67.6225 178.488 67.0199 175.742 65.979" stroke="#3E3025" stroke-width="1.34" stroke-linecap="round" stroke-linejoin="round"/>
<path d="M144.423 75.2263C143.592 86.4347 145.758 95.4408 152.16 104.524" stroke="#3E3025" stroke-width="1.34" stroke-linecap="round" stroke-linejoin="round"/>
<path d="M140.353 88.5491C141.14 96.6349 145.299 104.589 151.022 109.399" stroke="#3E3025" stroke-width="1.34" stroke-linecap="round" stroke-linejoin="round"/>
<path d="M337.717 99.878C332.355 93.4247 327.923 86.0949 320.285 82.4574C314.912 79.9046 308.139 77.79 302.306 77.2422" stroke="#3E3025" stroke-width="1.34" stroke-linecap="round" stroke-linejoin="round"/>
<path d="M353.606 122.437C356.79 125.921 372.066 135.771 367.405 142.323" stroke="#3E3025" stroke-width="1.34" stroke-linecap="round" stroke-linejoin="round"/>
<path d="M54.3311 112.839C59.4961 120.717 61.9691 130.413 71.0517 134.642" stroke="#3E3025" stroke-width="1.34" stroke-linecap="round" stroke-linejoin="round"/>
<path d="M66.3682 135.892C72.5946 141.961 80.8783 146.136 89.2824 146.64" stroke="#3E3025" stroke-width="1.34" stroke-linecap="round" stroke-linejoin="round"/>
<path d="M80.1124 166.547C74.0392 169.44 64.4314 172.76 57.8547 172.453" stroke="#3E3025" stroke-width="1.34" stroke-linecap="round" stroke-linejoin="round"/>
<path d="M47.9076 172.398C40.3461 171.938 33.5178 171.631 25.8906 170.031" stroke="#3E3025" stroke-width="1.34" stroke-linecap="round" stroke-linejoin="round"/>
<path d="M37.1507 127.488C34.5901 133.58 32.1389 139.496 34.1961 146.3" stroke="#3E3025" stroke-width="1.34" stroke-linecap="round" stroke-linejoin="round"/>
<path d="M8.25085 135.278C6.54377 142.093 3.26093 149.291 9.79379 155.317" stroke="#3E3025" stroke-width="1.34" stroke-linecap="round" stroke-linejoin="round"/>
<path d="M10.7896 142.148C11.8948 147.944 12.2997 159.042 19.7736 159.952" stroke="#3E3025" stroke-width="1.34" stroke-linecap="round" stroke-linejoin="round"/>
<path d="M73.8311 52.3713C69.3555 58.8904 67.5937 69.7919 68.8631 77.6367" stroke="#3E3025" stroke-width="1.34" stroke-linecap="round" stroke-linejoin="round"/>
<path d="M76.1072 47.5944C76.0197 43.7925 83.2529 36.1121 85.6165 33.3621C89.2167 29.1768 93.9659 25.846 98.9449 23.9177" stroke="#3E3025" stroke-width="1.34" stroke-linecap="round" stroke-linejoin="round"/>
<path d="M89.4575 37.9966C81.8194 46.4111 72.4633 59.1423 72.7478 71.7641" stroke="#3E3025" stroke-width="1.34" stroke-linecap="round" stroke-linejoin="round"/>
<path d="M111.846 10.1345C127.462 0.0656277 149.741 10.6385 163.146 20.0829C166.604 22.5152 170.095 25.4624 173.247 28.0372" stroke="#3E3025" stroke-width="1.34" stroke-linecap="round" stroke-linejoin="round"/>
<path d="M173.586 38.8403C171.507 31.2037 157.434 22.2633 150.825 21.0581" stroke="#3E3025" stroke-width="1.34" stroke-linecap="round" stroke-linejoin="round"/>
<path d="M235.358 47.3096C227.851 50.213 225.499 67.3706 228.103 74.1965" stroke="#3E3025" stroke-width="1.34" stroke-linecap="round" stroke-linejoin="round"/>
<path d="M213.166 73.8567C212.717 80.058 214.337 87.6836 217.149 93.1508C218.867 96.4925 221.089 100.864 223.616 103.548" stroke="#3E3025" stroke-width="1.34" stroke-linecap="round" stroke-linejoin="round"/>
<path d="M212.608 96.1748C214.37 99.0125 215.672 102.113 217.39 104.951C218.977 107.591 221.297 109.279 223.015 111.601" stroke="#3E3025" stroke-width="1.34" stroke-linecap="round" stroke-linejoin="round"/>
<path d="M325.976 124.015C319.497 125.877 316.904 145.435 318.283 151.209" stroke="#3E3025" stroke-width="1.34" stroke-linecap="round" stroke-linejoin="round"/>
<path d="M62.0675 86.8071C61.1921 94.1041 65.4488 103.702 68.1189 110.243C69.9354 114.68 71.6862 117.386 75.0238 120.41" stroke="#3E3025" stroke-width="1.34" stroke-linecap="round" stroke-linejoin="round"/>
<path d="M71.7957 107.153C73.9295 112.116 79.9809 124.07 85.9885 124.453" stroke="#3E3025" stroke-width="1.34" stroke-linecap="round" stroke-linejoin="round"/>
<path d="M354.186 160.105C348.561 130.446 390.385 112.029 417.063 129.186C410.717 124.749 432.898 111.448 437.275 109.837C451.96 104.414 470.804 105.29 485.04 111.853C512.189 124.365 528.363 164.093 508.644 186.324C508.348 186.652 507.954 187.014 507.506 187.375" stroke="#3E3025" stroke-width="1.14" stroke-linecap="round" stroke-linejoin="round"/>
<path d="M508.797 151.154C509.333 142.378 502.746 133.963 496.716 127.192C494.593 124.815 492.098 122.229 488.772 121.057" stroke="#3E3025" stroke-width="1.14" stroke-linecap="round" stroke-linejoin="round"/>
<path d="M492.613 129.898C490.468 127.126 488.246 124.311 485.544 121.911C483.552 120.147 477.916 116.247 474.962 116.499" stroke="#3E3025" stroke-width="1.14" stroke-linecap="round" stroke-linejoin="round"/>
<path d="M447.824 113.157C438.041 116.028 426.562 120.498 423.782 129.909" stroke="#3E3025" stroke-width="1.14" stroke-linecap="round" stroke-linejoin="round"/>
<path d="M439.551 119.03C435.623 122.152 428.116 126.721 428.127 131.827" stroke="#3E3025" stroke-width="1.14" stroke-linecap="round" stroke-linejoin="round"/>
<path d="M375.141 130.457C367.996 132.583 361.342 139.036 360.412 145.599" stroke="#3E3025" stroke-width="1.14" stroke-linecap="round" stroke-linejoin="round"/>
<path d="M386.839 132.55C382.178 134.697 376.925 135.081 374.343 139.617" stroke="#3E3025" stroke-width="1.14" stroke-linecap="round" stroke-linejoin="round"/>
<path d="M456.096 118.789C448.097 121.21 434.703 127.806 434.123 136.001" stroke="#3E3025" stroke-width="1.14" stroke-linecap="round" stroke-linejoin="round"/>
</g>
<defs>
<clipPath id="clip0_26_1427">
<rect width="518" height="188" fill="white"/>
</clipPath>
</defs>
</svg>
