<svg width="346" height="165" viewBox="0 0 346 165" fill="none" xmlns="http://www.w3.org/2000/svg">
<g clip-path="url(#clip0_122_323)">
<path d="M24.88 102.69C12.25 104.73 0.33996 115.04 0.67996 129.46C0.99996 142.88 10.12 151.04 21.6 153.67C25.25 154.51 29.79 155.11 34.38 155.08" stroke="#3E3025" stroke-width="1.34" stroke-linecap="round" stroke-linejoin="round"/>
<path d="M24.8799 102.69C30.0699 101.85 35.3899 102.37 40.0199 104.63" stroke="#3E3025" stroke-width="1.34" stroke-linecap="round" stroke-linejoin="round"/>
<path d="M90.5399 59.2204C76.9199 57.9504 62.4899 60.5404 51.1299 67.0304C40.0899 73.3304 26.4799 87.7404 24.8799 102.69" stroke="#3E3025" stroke-width="1.34" stroke-linecap="round" stroke-linejoin="round"/>
<path d="M98.12 104.26C90.42 113.08 94.11 123.95 104.72 124.89C113.86 125.7 121.59 116.51 125.15 108.23C132.68 90.6805 125.39 70.6205 108.91 63.6205C103.26 61.2205 96.98 59.8305 90.53 59.2305" stroke="#3E3025" stroke-width="1.34" stroke-linecap="round" stroke-linejoin="round"/>
<path d="M90.54 59.22C95.82 43.28 109.74 31.58 126.64 33.81C132.12 34.53 136.47 39.14 138.92 44.67" stroke="#3E3025" stroke-width="1.34" stroke-linecap="round" stroke-linejoin="round"/>
<path d="M176.81 83.5996C180.61 92.8696 184.77 99.1296 195.51 96.5696C201.12 95.2296 205.52 90.1996 207.75 84.4696C211.45 74.9596 209.75 63.5196 204.34 55.0296C197.47 44.2396 185.27 38.1296 172.83 36.3496" stroke="#3E3025" stroke-width="1.34" stroke-linecap="round" stroke-linejoin="round"/>
<path d="M138.91 44.6798C143.6 41.4498 147.41 38.5698 153.86 37.0398C159.76 35.6398 166.32 35.4098 172.82 36.3398" stroke="#3E3025" stroke-width="1.34" stroke-linecap="round" stroke-linejoin="round"/>
<path d="M276.34 121.27C284.47 117.39 288.86 108.43 291.29 98.9199" stroke="#3E3025" stroke-width="1.34" stroke-linecap="round" stroke-linejoin="round"/>
<path d="M172.83 36.3404C180.96 14.9904 204.21 1.13037 224.64 0.68037C250.85 0.10037 274.84 17.1504 286.58 42.1904C292.34 54.4804 295.08 68.4404 293.93 82.1904C293.5 87.3104 292.75 93.2004 291.3 98.9104" stroke="#3E3025" stroke-width="1.34" stroke-linecap="round" stroke-linejoin="round"/>
<path d="M317.24 117.67C321.45 114.86 326.58 113.9 333.09 116.24C343.56 120.02 347.79 131.55 342.59 142.2C334.01 159.79 312.46 163.78 295.92 163.6C285.07 163.48 273.16 161.07 264.86 154.18" stroke="#3E3025" stroke-width="1.34" stroke-linecap="round" stroke-linejoin="round"/>
<path d="M291.29 98.9199C292.95 98.9999 294.6 99.1599 296.23 99.4399C306.41 101.25 313.91 107.97 317.25 117.67" stroke="#3E3025" stroke-width="1.34" stroke-linecap="round" stroke-linejoin="round"/>
<path d="M318.96 125.01C318.67 122.39 318.04 119.97 317.25 117.67" stroke="#3E3025" stroke-width="1.34" stroke-linecap="round" stroke-linejoin="round"/>
<path d="M7.8999 119.47C8.6499 112.46 17.2099 107.6 23.0799 107.52" stroke="#3E3025" stroke-width="1.34" stroke-linecap="round" stroke-linejoin="round"/>
<path d="M30.3701 106.87C35.2501 107.77 46.3001 113.21 47.3201 118.23" stroke="#3E3025" stroke-width="1.34" stroke-linecap="round" stroke-linejoin="round"/>
<path d="M98.0802 95.9404C89.2302 98.1904 87.4002 110.36 88.2702 118.76" stroke="#3E3025" stroke-width="1.34" stroke-linecap="round" stroke-linejoin="round"/>
<path d="M84.21 102.09C81.94 109.9 81.9 127.48 92.19 129.01" stroke="#3E3025" stroke-width="1.34" stroke-linecap="round" stroke-linejoin="round"/>
<path d="M98.27 130.75C104.13 130.46 113.82 130.87 118.56 126.3" stroke="#3E3025" stroke-width="1.34" stroke-linecap="round" stroke-linejoin="round"/>
<path d="M56.03 71.67C61.16 66.31 69.44 65.56 76.15 64.96" stroke="#3E3025" stroke-width="1.34" stroke-linecap="round" stroke-linejoin="round"/>
<path d="M82.78 64.75C88.57 65.08 93.39 66.63 99.07 67.47" stroke="#3E3025" stroke-width="1.34" stroke-linecap="round" stroke-linejoin="round"/>
<path d="M102.39 51.28C104.65 45.83 109.43 42.25 114.99 42.21" stroke="#3E3025" stroke-width="1.34" stroke-linecap="round" stroke-linejoin="round"/>
<path d="M142.62 51.4902C147.58 59.4502 145.6 71.7702 141.98 79.9302" stroke="#3E3025" stroke-width="1.34" stroke-linecap="round" stroke-linejoin="round"/>
<path d="M170.19 41.4696C174.26 41.2096 179.94 44.0996 183.71 45.6296C187.07 46.9996 191.51 50.2495 194.3 52.7595C198.36 56.4195 203.46 65.6395 201.47 71.2395" stroke="#3E3025" stroke-width="1.34" stroke-linecap="round" stroke-linejoin="round"/>
<path d="M196.52 66.0098C197.03 72.6998 198.46 81.8798 192.47 86.4298" stroke="#3E3025" stroke-width="1.34" stroke-linecap="round" stroke-linejoin="round"/>
<path d="M175.22 89.4697C177.25 94.9597 179.66 99.7497 185.86 100.64" stroke="#3E3025" stroke-width="1.34" stroke-linecap="round" stroke-linejoin="round"/>
<path d="M172.25 82.5504C171.64 78.8204 173.54 73.1604 175.51 70.1504" stroke="#3E3025" stroke-width="1.34" stroke-linecap="round" stroke-linejoin="round"/>
<path d="M178.23 64.5997C179.56 61.7197 182.38 61.1697 184.89 60.2197" stroke="#3E3025" stroke-width="1.34" stroke-linecap="round" stroke-linejoin="round"/>
<path d="M213.51 68.6602C214.27 78.8902 212.29 87.1102 206.44 95.4002" stroke="#3E3025" stroke-width="1.34" stroke-linecap="round" stroke-linejoin="round"/>
<path d="M217.23 80.8203C216.51 88.2003 212.71 95.4603 207.48 99.8503" stroke="#3E3025" stroke-width="1.34" stroke-linecap="round" stroke-linejoin="round"/>
<path d="M36.8701 91.16C41.7701 85.27 45.8201 78.58 52.8001 75.26C57.7101 72.93 63.9001 71 69.2301 70.5" stroke="#3E3025" stroke-width="1.34" stroke-linecap="round" stroke-linejoin="round"/>
<path d="M22.35 111.75C19.44 114.93 5.47996 123.91 9.73996 129.9" stroke="#3E3025" stroke-width="1.34" stroke-linecap="round" stroke-linejoin="round"/>
<path d="M295.84 102.99C291.12 110.18 288.86 119.03 280.56 122.89" stroke="#3E3025" stroke-width="1.34" stroke-linecap="round" stroke-linejoin="round"/>
<path d="M284.84 124.03C279.15 129.57 271.58 133.38 263.9 133.84" stroke="#3E3025" stroke-width="1.34" stroke-linecap="round" stroke-linejoin="round"/>
<path d="M272.28 152.01C277.83 154.65 286.61 157.68 292.62 157.4" stroke="#3E3025" stroke-width="1.34" stroke-linecap="round" stroke-linejoin="round"/>
<path d="M301.71 157.35C308.62 156.93 314.86 156.65 321.83 155.19" stroke="#3E3025" stroke-width="1.34" stroke-linecap="round" stroke-linejoin="round"/>
<path d="M311.54 116.36C313.88 121.92 316.12 127.31 314.24 133.53" stroke="#3E3025" stroke-width="1.34" stroke-linecap="round" stroke-linejoin="round"/>
<path d="M337.95 123.47C339.51 129.69 342.51 136.27 336.54 141.76" stroke="#3E3025" stroke-width="1.34" stroke-linecap="round" stroke-linejoin="round"/>
<path d="M335.63 129.74C334.62 135.03 334.25 145.16 327.42 145.99" stroke="#3E3025" stroke-width="1.34" stroke-linecap="round" stroke-linejoin="round"/>
<path d="M278.02 47.7998C282.11 53.7498 283.72 63.6998 282.56 70.8598" stroke="#3E3025" stroke-width="1.34" stroke-linecap="round" stroke-linejoin="round"/>
<path d="M275.94 43.4401C276.02 39.9701 269.41 32.9601 267.25 30.4501C263.96 26.6301 259.62 23.5901 255.07 21.8301" stroke="#3E3025" stroke-width="1.34" stroke-linecap="round" stroke-linejoin="round"/>
<path d="M263.74 34.6797C270.72 42.3597 279.27 53.9797 279.01 65.4997" stroke="#3E3025" stroke-width="1.34" stroke-linecap="round" stroke-linejoin="round"/>
<path d="M243.28 9.25027C229.01 0.0602658 208.65 9.71027 196.4 18.3303C193.24 20.5503 190.05 23.2403 187.17 25.5903" stroke="#3E3025" stroke-width="1.34" stroke-linecap="round" stroke-linejoin="round"/>
<path d="M186.86 35.4497C188.76 28.4797 201.62 20.3197 207.66 19.2197" stroke="#3E3025" stroke-width="1.34" stroke-linecap="round" stroke-linejoin="round"/>
<path d="M130.41 43.1797C137.27 45.8197 139.42 61.4897 137.04 67.7197" stroke="#3E3025" stroke-width="1.34" stroke-linecap="round" stroke-linejoin="round"/>
<path d="M150.69 67.4102C151.1 73.0702 149.62 80.0301 147.05 85.0201C145.48 88.0701 143.45 92.0602 141.14 94.5102" stroke="#3E3025" stroke-width="1.34" stroke-linecap="round" stroke-linejoin="round"/>
<path d="M151.2 87.7803C149.59 90.3703 148.4 93.2003 146.83 95.7903C145.38 98.2003 143.26 99.7403 141.69 101.86" stroke="#3E3025" stroke-width="1.34" stroke-linecap="round" stroke-linejoin="round"/>
<path d="M47.6001 113.19C53.5201 114.89 55.8901 132.74 54.6301 138.01" stroke="#3E3025" stroke-width="1.34" stroke-linecap="round" stroke-linejoin="round"/>
<path d="M288.77 79.2305C289.57 85.8905 285.68 94.6505 283.24 100.62C281.58 104.67 279.98 107.14 276.93 109.9" stroke="#3E3025" stroke-width="1.34" stroke-linecap="round" stroke-linejoin="round"/>
<path d="M279.88 97.7998C277.93 102.33 272.4 113.24 266.91 113.59" stroke="#3E3025" stroke-width="1.34" stroke-linecap="round" stroke-linejoin="round"/>
</g>
<defs>
<clipPath id="clip0_122_323">
<rect width="345.49" height="164.28" fill="white"/>
</clipPath>
</defs>
</svg>
