<svg width="223" height="175" viewBox="0 0 223 175" fill="none" xmlns="http://www.w3.org/2000/svg">
<g clip-path="url(#clip0_122_373)">
<path d="M59.6565 2.17871L69.6135 78.5418L100.026 123.702L168.87 168.477L219.054 133.358" stroke="#3E3025" stroke-width="1.1" stroke-linecap="round" stroke-linejoin="round"/>
<path d="M100.026 123.702L6.15381 156.984L23.0337 87.6708L69.6137 78.542" stroke="#3E3025" stroke-width="1.1" stroke-linecap="round" stroke-linejoin="round"/>
<path d="M76.4937 83.1847C74.5137 87.8132 69.1577 89.9495 64.5282 87.9699C59.8987 85.9903 57.762 80.6355 59.742 76.007C61.722 71.3785 67.078 69.2423 71.7075 71.2218C76.337 73.2014 78.4737 78.5562 76.4937 83.1847Z" fill="#3E3025"/>
<path d="M107.547 126.408C106.066 129.869 102.063 131.464 98.6015 129.983C95.14 128.501 93.5446 124.5 95.0261 121.039C96.5075 117.578 100.51 115.983 103.972 117.464C107.433 118.945 109.029 122.947 107.547 126.408Z" fill="#3E3025"/>
<path d="M27.2786 88.6536C26.3527 90.8326 23.8314 91.8437 21.652 90.9038C19.4725 89.9781 18.4612 87.4573 19.4013 85.2784C20.3272 83.0994 22.8485 82.0883 25.028 83.0282C27.2074 83.9539 28.2188 86.4747 27.2786 88.6536Z" fill="#3E3025"/>
<path d="M175.067 171.141C173.685 174.374 169.939 175.869 166.705 174.488C163.472 173.106 161.976 169.361 163.358 166.128C164.739 162.895 168.486 161.4 171.719 162.781C174.953 164.163 176.449 167.908 175.067 171.141Z" fill="#3E3025"/>
<path d="M12.2218 159.576C10.8401 162.809 7.09372 164.305 3.86019 162.923C0.626651 161.542 -0.869037 157.796 0.512694 154.563C1.89442 151.331 5.64077 149.835 8.8743 151.217C12.1078 152.598 13.6035 156.344 12.2218 159.576Z" fill="#3E3025"/>
<path d="M62.6907 5.98173C61.7648 8.16069 59.2435 9.17184 57.0641 8.2319C54.8847 7.29195 53.8733 4.78544 54.8134 2.60649C55.7393 0.427532 58.2606 -0.583617 60.4401 0.356324C62.6195 1.28202 63.6309 3.80278 62.6907 5.98173Z" fill="#3E3025"/>
<path d="M222.644 135.85C221.718 138.029 219.197 139.04 217.017 138.1C214.838 137.174 213.826 134.654 214.767 132.475C215.692 130.296 218.214 129.285 220.393 130.224C222.573 131.15 223.584 133.671 222.644 135.85Z" fill="#3E3025"/>
</g>
<defs>
<clipPath id="clip0_122_373">
<rect width="223" height="175" fill="white"/>
</clipPath>
</defs>
</svg>
