<svg width="28" height="17" viewBox="0 0 28 17" fill="none" xmlns="http://www.w3.org/2000/svg">
<path d="M11.1218 1L20 1.7832V16L9 13.8072L11.1218 1Z" fill="#FF5F00"/>
<mask id="mask0_1_93" style="mask-type:luminance" maskUnits="userSpaceOnUse" x="0" y="0" width="28" height="17">
<path d="M28 0H0V17H28V0Z" fill="white"/>
</mask>
<g mask="url(#mask0_1_93)">
<path d="M10.7041 8.49624C10.7045 7.21019 11.0012 5.94088 11.5719 4.78336C12.1427 3.62583 12.9728 2.61009 14 1.8122C12.9144 0.976042 11.641 0.406774 10.2859 0.151847C8.93079 -0.103081 7.53326 -0.0362824 6.20978 0.346674C4.8863 0.72963 3.67522 1.41765 2.67748 2.35339C1.67974 3.28912 0.924247 4.44547 0.473969 5.72604C0.0236899 7.00662 -0.108328 8.37432 0.0889188 9.71515C0.286166 11.056 0.806963 12.3311 1.6079 13.4342C2.40884 14.5373 3.46672 15.4365 4.69336 16.0568C5.92 16.677 7.27987 17.0004 8.65962 17C10.5952 16.9997 12.4742 16.3589 13.9931 15.181C12.9651 14.3841 12.1348 13.3683 11.5651 12.2103C10.9953 11.0523 10.7009 9.78231 10.7041 8.49624Z" fill="#EB001B"/>
<path d="M28 8.5C28.0012 10.0943 27.5453 11.6568 26.6844 13.0087C25.8235 14.3606 24.5923 15.4473 23.1318 16.1446C21.6712 16.8419 20.0402 17.1215 18.4253 16.9516C16.8104 16.7817 15.2768 16.169 14 15.1837C15.0275 14.3859 15.8578 13.3703 16.4286 12.2128C16.9994 11.0553 17.2959 9.78598 17.2959 8.5C17.2959 7.21402 16.9994 5.94472 16.4286 4.78723C15.8578 3.62973 15.0275 2.61407 14 1.81635C15.2768 0.831007 16.8104 0.218328 18.4253 0.0483911C20.0402 -0.121545 21.6712 0.158123 23.1318 0.855407C24.5923 1.55269 25.8235 2.63943 26.6844 3.99133C27.5453 5.34323 28.0012 6.90569 28 8.5Z" fill="#F79E1B"/>
<path d="M4.64539 9.95142V8.62729C4.65615 8.5142 4.64005 8.4003 4.5982 8.2936C4.55636 8.18691 4.4898 8.09001 4.40321 8.00974C4.31662 7.92946 4.2121 7.86776 4.09701 7.82897C3.98192 7.79018 3.85906 7.77525 3.73707 7.78523C3.57901 7.77958 3.42197 7.81103 3.28052 7.87666C3.13907 7.94229 3.01778 8.03997 2.92791 8.16064C2.85005 8.03958 2.73793 7.94059 2.60369 7.87441C2.46946 7.80823 2.31824 7.77739 2.16643 7.78523C2.03616 7.78006 1.90661 7.80568 1.78996 7.8597C1.6733 7.91371 1.57338 7.99432 1.49958 8.09398V7.82943H1V9.94792H1.49958V8.77815C1.49958 8.40273 1.71379 8.22661 2.04684 8.22661C2.37989 8.22661 2.54642 8.42519 2.54642 8.77815V9.94792H3.04599V8.77815C3.03648 8.70739 3.0437 8.63555 3.06715 8.56764C3.09061 8.49972 3.12973 8.43735 3.18181 8.38486C3.23389 8.33237 3.29767 8.29104 3.36872 8.26371C3.43977 8.23638 3.51639 8.22371 3.59325 8.22661C3.92631 8.22661 4.09283 8.42519 4.09283 8.77815V9.94792L4.64539 9.95142ZM12.049 7.83294H11.2398V7.19297H10.7402V7.83294H10.2861V8.25397H10.7402V9.22515C10.7402 9.71074 10.9544 9.99704 11.5259 9.99704C11.7428 9.99313 11.9554 9.94013 12.1451 9.84266L12.002 9.44549C11.8737 9.51976 11.7249 9.55802 11.5736 9.55566C11.3359 9.55566 11.2406 9.42303 11.2406 9.2048V8.25607H12.0497L12.049 7.83294ZM16.2878 7.78873C16.1679 7.78618 16.0495 7.81349 15.9448 7.86779C15.8402 7.92209 15.7532 8.00141 15.6928 8.09749V7.83294H15.194V9.95142H15.6936V8.7585C15.6936 8.40765 15.8601 8.20696 16.1697 8.20696C16.2744 8.21085 16.3782 8.22568 16.4793 8.25117L16.6224 7.80978C16.5125 7.79159 16.4008 7.7843 16.2893 7.78803M9.88564 8.00837C9.60678 7.8505 9.28327 7.77375 8.95688 7.78803C8.3854 7.78803 8.00466 8.05258 8.00466 8.47221C8.00466 8.82307 8.29003 9.02376 8.79036 9.09042L9.02804 9.11217C9.28994 9.15638 9.433 9.22234 9.433 9.33321C9.433 9.48759 9.24225 9.59776 8.9092 9.59776C8.63679 9.59903 8.3707 9.52179 8.14773 9.37672L7.91005 9.72758C8.1981 9.90686 8.53887 9.99927 8.88573 9.99213C9.55259 9.99213 9.93333 9.70513 9.93333 9.30795C9.93333 8.93253 9.62374 8.73395 9.14763 8.66798L8.90996 8.64623C8.69574 8.62447 8.53149 8.58027 8.53149 8.44765C8.53149 8.29327 8.69801 8.20485 8.95991 8.20485C9.20887 8.21505 9.45245 8.27539 9.6737 8.38168L9.88564 8.00837ZM23.1698 7.78803C23.0499 7.78548 22.9315 7.81278 22.8269 7.86708C22.7222 7.92139 22.6352 8.00071 22.5749 8.09679V7.83224H22.0753V9.95073H22.5749V8.75781C22.5749 8.40695 22.7414 8.20626 23.051 8.20626C23.1556 8.21015 23.2595 8.22497 23.3606 8.25046L23.5036 7.80908C23.3938 7.79089 23.2821 7.7836 23.1706 7.78733M16.7836 8.89254C16.7767 9.04081 16.8035 9.18877 16.8622 9.32683C16.9209 9.4649 17.0103 9.59 17.1244 9.69404C17.2386 9.79808 17.375 9.87875 17.5249 9.93082C17.6748 9.9829 17.8349 10.0052 17.9947 9.99634C18.2875 10.0111 18.5758 9.92454 18.8038 9.75354L18.5662 9.37813C18.3976 9.50458 18.188 9.57455 17.9712 9.57671C17.8758 9.57897 17.7809 9.56246 17.6928 9.52827C17.6048 9.49408 17.5255 9.44298 17.4603 9.37834C17.3951 9.31371 17.3454 9.237 17.3145 9.15326C17.2835 9.06953 17.2721 8.98067 17.2809 8.89254C17.2761 8.80523 17.2903 8.71791 17.3227 8.6358C17.3551 8.55369 17.405 8.47847 17.4694 8.41463C17.5338 8.35078 17.6115 8.29962 17.6977 8.26418C17.7839 8.22874 17.8769 8.20975 17.9712 8.20836C18.188 8.21052 18.3976 8.2805 18.5662 8.40695L18.8038 8.03153C18.5758 7.86053 18.2875 7.77402 17.9947 7.78873C17.8349 7.77985 17.6748 7.80218 17.5249 7.85425C17.375 7.90632 17.2386 7.98699 17.1244 8.09103C17.0103 8.19508 16.9209 8.32018 16.8622 8.45825C16.8035 8.59631 16.7767 8.74427 16.7836 8.89254ZM21.4009 8.89254V7.83294H20.9013V8.09749C20.8175 7.99703 20.7089 7.91659 20.5848 7.86289C20.4606 7.80918 20.3244 7.78376 20.1875 7.78873C19.8808 7.80115 19.5911 7.92284 19.3789 8.12842C19.1666 8.334 19.0481 8.6076 19.0481 8.89219C19.0481 9.17677 19.1666 9.45038 19.3789 9.65595C19.5911 9.86153 19.8808 9.98321 20.1875 9.99564C20.3251 10.0055 20.4631 9.98233 20.5882 9.92823C20.7132 9.87414 20.8211 9.791 20.9013 9.68688V9.95142H21.4009V8.89254ZM19.5676 8.89254C19.5613 8.80493 19.5745 8.71707 19.6064 8.63438C19.6382 8.5517 19.6881 8.47597 19.7528 8.41186C19.8175 8.34776 19.8957 8.29666 19.9826 8.26173C20.0695 8.22679 20.1632 8.20876 20.2579 8.20876C20.3526 8.20876 20.4463 8.22679 20.5332 8.26173C20.6201 8.29666 20.6983 8.34776 20.763 8.41186C20.8277 8.47597 20.8776 8.5517 20.9094 8.63438C20.9413 8.71707 20.9545 8.80493 20.9482 8.89254C20.9545 8.98015 20.9413 9.068 20.9094 9.15068C20.8776 9.23337 20.8277 9.30911 20.763 9.37322C20.6983 9.43732 20.6201 9.48842 20.5332 9.52335C20.4463 9.55829 20.3526 9.57631 20.2579 9.57631C20.1632 9.57631 20.0695 9.55829 19.9826 9.52335C19.8957 9.48842 19.8175 9.43732 19.7528 9.37322C19.6881 9.30911 19.6382 9.23337 19.6064 9.15068C19.5745 9.068 19.5613 8.98015 19.5676 8.89254ZM13.5923 7.78873C13.2815 7.79826 12.9871 7.92016 12.7719 8.12835C12.5568 8.33655 12.438 8.61451 12.4411 8.90281C12.4442 9.19111 12.5688 9.46685 12.7883 9.67107C13.0078 9.8753 13.3048 9.99179 13.6158 9.99564C13.9518 10.0022 14.28 9.90079 14.5446 9.70863L14.3069 9.37742C14.1157 9.51513 13.8821 9.59258 13.64 9.59847C13.4769 9.61133 13.3146 9.56599 13.1863 9.4717C13.0581 9.37742 12.9734 9.24129 12.9497 9.09112H14.6399V8.91429C14.6631 8.77475 14.6532 8.63222 14.6111 8.49655C14.569 8.36088 14.4956 8.23532 14.3959 8.12855C14.2963 8.02177 14.1729 7.93633 14.0341 7.87814C13.8954 7.81996 13.7446 7.79041 13.5923 7.79154M13.5923 8.18871C13.6659 8.18694 13.7391 8.19869 13.8077 8.22328C13.8763 8.24787 13.939 8.28482 13.9921 8.33199C14.0453 8.37916 14.0878 8.43561 14.1173 8.4981C14.1467 8.56059 14.1626 8.62787 14.1638 8.69606H12.9777C12.9924 8.55452 13.0645 8.42343 13.1794 8.32926C13.2944 8.23509 13.4436 8.18486 13.5969 8.18871M26 8.89464V7H25.5004V8.09679C25.4165 7.99623 25.3079 7.91573 25.1836 7.86202C25.0593 7.80831 24.9229 7.78294 24.7859 7.78803C24.4792 7.80045 24.1895 7.92213 23.9772 8.12771C23.765 8.33329 23.6465 8.60689 23.6465 8.89148C23.6465 9.17607 23.765 9.44967 23.9772 9.65525C24.1895 9.86083 24.4792 9.98252 24.7859 9.99494C24.9236 10.0049 25.0617 9.98172 25.1869 9.92762C25.3121 9.87353 25.4201 9.79036 25.5004 9.68618V9.95073H26V8.89464ZM24.1667 8.89464C24.1604 8.80703 24.1737 8.71917 24.2055 8.63648C24.2374 8.5538 24.2872 8.47807 24.3519 8.41396C24.4166 8.34986 24.4949 8.29876 24.5817 8.26382C24.6686 8.22889 24.7623 8.21087 24.857 8.21087C24.9517 8.21087 25.0454 8.22889 25.1323 8.26382C25.2192 8.29876 25.2974 8.34986 25.3621 8.41396C25.4269 8.47807 25.4767 8.5538 25.5086 8.63648C25.5404 8.71917 25.5536 8.80703 25.5474 8.89464C25.5536 8.98224 25.5404 9.07011 25.5086 9.15279C25.4767 9.23548 25.4269 9.31121 25.3621 9.37531C25.2974 9.43942 25.2192 9.49052 25.1323 9.52545C25.0454 9.56039 24.9517 9.57842 24.857 9.57842C24.7623 9.57842 24.6686 9.56039 24.5817 9.52545C24.4949 9.49052 24.4166 9.43942 24.3519 9.37531C24.2872 9.31121 24.2374 9.23548 24.2055 9.15279C24.1737 9.07011 24.1604 8.98224 24.1667 8.89464ZM7.45437 8.89464V7.83505H6.9548V8.09959C6.87088 7.99903 6.76224 7.91854 6.63794 7.86483C6.51364 7.81112 6.37728 7.78575 6.24025 7.79084C5.93357 7.80326 5.64388 7.92494 5.43161 8.13052C5.21933 8.3361 5.10084 8.6097 5.10084 8.89429C5.10084 9.17887 5.21933 9.45249 5.43161 9.65806C5.64388 9.86364 5.93357 9.98532 6.24025 9.99774C6.37796 10.0077 6.5161 9.98452 6.6413 9.93043C6.76649 9.87633 6.87448 9.79316 6.9548 9.68899V9.95353H7.45437V8.89464ZM5.59761 8.89464C5.59135 8.80703 5.60456 8.71917 5.63642 8.63648C5.66828 8.5538 5.71811 8.47807 5.78282 8.41396C5.84754 8.34986 5.92576 8.29876 6.01265 8.26382C6.09953 8.22889 6.19323 8.21087 6.28794 8.21087C6.38265 8.21087 6.47634 8.22889 6.56323 8.26382C6.65011 8.29876 6.72834 8.34986 6.79306 8.41396C6.85777 8.47807 6.9076 8.5538 6.93946 8.63648C6.97132 8.71917 6.98452 8.80703 6.97826 8.89464C6.98452 8.98224 6.97132 9.07011 6.93946 9.15279C6.9076 9.23548 6.85777 9.31121 6.79306 9.37531C6.72834 9.43942 6.65011 9.49052 6.56323 9.52545C6.47634 9.56039 6.38265 9.57842 6.28794 9.57842C6.19323 9.57842 6.09953 9.56039 6.01265 9.52545C5.92576 9.49052 5.84754 9.43942 5.78282 9.37531C5.71811 9.31121 5.66828 9.23548 5.63642 9.15279C5.60456 9.07011 5.59135 8.98224 5.59761 8.89464Z" fill="#1A1A1A"/>
</g>
</svg>
