<svg width="28" height="9" viewBox="0 0 28 9" fill="none" xmlns="http://www.w3.org/2000/svg">
<mask id="mask0_1_127" style="mask-type:luminance" maskUnits="userSpaceOnUse" x="0" y="0" width="28" height="9">
<path d="M28 0H0V9H28V0Z" fill="white"/>
</mask>
<g mask="url(#mask0_1_127)">
<path d="M22.2661 0.884027L24.5954 0.492316V8.91162H22.2661V0.884027ZM25.6684 0.884027V8.90805H28V0.492316L25.6684 0.884027ZM18.9472 8.90805H21.2781V2.75269H18.9472V8.90805ZM3.54407 3.62316C3.24911 3.60532 2.56744 3.56394 2.56744 2.986C2.56744 2.28891 3.55317 2.28891 3.91789 2.28891C4.62614 2.31875 5.32717 2.43581 6.00309 2.6371C6.00309 2.6371 6.33748 2.74769 6.62182 2.86114L6.64836 2.86756V0.958232L6.61196 0.948242C5.63352 0.61843 4.59813 0.463793 3.55924 0.492316C0.931893 0.492316 0 1.93216 0 3.1658C0 3.8793 0.323774 5.55103 3.33631 5.74439C3.59108 5.75866 4.2682 5.79576 4.2682 6.39296C4.2682 6.88599 3.71392 7.17782 2.78203 7.17782C1.88599 7.17039 0.999016 7.00811 0.165299 6.69906V8.66546C1.18207 8.90169 2.22695 9.01368 3.27414 8.99867C5.8431 8.99867 6.99412 7.63588 6.99412 6.28737C6.99412 4.7562 5.70509 3.76086 3.54635 3.62458M17.6339 2.66207C15.4797 2.727 14.3863 3.63671 14.3863 5.44472V8.90805H16.7369V6.08402C16.7369 5.00164 16.8886 4.53715 18.2534 4.49291V2.69418C18.049 2.66501 17.8421 2.65426 17.6354 2.66207M11.3124 2.74484C10.9965 3.52155 10.548 4.24455 9.98467 4.88534V0.492316L7.57949 0.939681V8.90805H9.98467V6.44505C10.4653 7.21023 10.8163 8.04119 11.025 8.90805H13.9064C13.5087 7.80621 12.9956 6.74429 12.3747 5.73797C13.1157 4.83894 13.6869 3.82672 14.0633 2.74555L11.3124 2.74484ZM20.1127 2.16191C20.3399 2.16205 20.5621 2.09877 20.7511 1.98008C20.9401 1.86139 21.0874 1.69262 21.1745 1.49511C21.2616 1.29761 21.2844 1.08024 21.2402 0.870508C21.1959 0.660776 21.0866 0.468102 20.926 0.316857C20.7653 0.165611 20.5607 0.0625896 20.3378 0.020823C20.1149 -0.0209437 19.8839 0.000421048 19.674 0.0822148C19.464 0.164009 19.2846 0.302557 19.1583 0.480334C19.0321 0.658111 18.9647 0.867131 18.9647 1.08095C18.9647 1.36752 19.0856 1.64235 19.3009 1.84505C19.5161 2.04775 19.8081 2.16172 20.1127 2.16191Z" fill="white"/>
</g>
</svg>
