<svg width="318" height="250" viewBox="0 0 318 250" fill="none" xmlns="http://www.w3.org/2000/svg">
<g clip-path="url(#clip0_67_101)">
<path d="M232.929 3.11279L218.73 112.203L175.362 176.717L77.1894 240.682L5.62676 190.511" stroke="#3E3025" stroke-width="1.1" stroke-linecap="round" stroke-linejoin="round"/>
<path d="M175.362 176.717L309.225 224.263L285.154 125.244L218.73 112.203" stroke="#3E3025" stroke-width="1.1" stroke-linecap="round" stroke-linejoin="round"/>
<path d="M208.919 118.835C211.743 125.448 219.38 128.499 225.982 125.671C232.584 122.843 235.631 115.194 232.807 108.582C229.984 101.969 222.346 98.9176 215.744 101.746C209.143 104.574 206.096 112.223 208.919 118.835Z" fill="#3E3025"/>
<path d="M164.637 180.583C166.749 185.527 172.457 187.805 177.393 185.689C182.329 183.573 184.604 177.856 182.492 172.913C180.379 167.969 174.671 165.69 169.735 167.806C164.799 169.922 162.524 175.639 164.637 180.583Z" fill="#3E3025"/>
<path d="M279.101 126.648C280.421 129.761 284.016 131.205 287.124 129.862C290.232 128.54 291.674 124.939 290.334 121.826C289.013 118.713 285.418 117.269 282.31 118.612C279.202 119.934 277.76 123.535 279.101 126.648Z" fill="#3E3025"/>
<path d="M68.3532 244.486C70.3236 249.105 75.6659 251.241 80.277 249.268C84.888 247.294 87.0209 241.943 85.0505 237.325C83.0802 232.707 77.7378 230.57 73.1268 232.544C68.5157 234.517 66.3829 239.868 68.3532 244.486Z" fill="#3E3025"/>
<path d="M300.572 227.966C302.542 232.585 307.884 234.721 312.495 232.748C317.106 230.774 319.239 225.423 317.269 220.805C315.298 216.187 309.956 214.05 305.345 216.024C300.734 217.997 298.601 223.348 300.572 227.966Z" fill="#3E3025"/>
<path d="M228.603 8.52468C229.923 11.6375 233.518 13.082 236.626 11.7392C239.734 10.4168 241.176 6.8157 239.836 3.70291C238.515 0.590113 234.92 -0.854386 231.812 0.488388C228.704 1.81082 227.262 5.41189 228.603 8.52468Z" fill="#3E3025"/>
<path d="M0.507834 194.072C1.82818 197.184 5.42357 198.629 8.53146 197.286C11.6394 195.943 13.0816 192.363 11.7409 189.25C10.4206 186.137 6.82518 184.692 3.71729 186.035C0.609403 187.358 -0.832824 190.959 0.507834 194.072Z" fill="#3E3025"/>
</g>
<defs>
<clipPath id="clip0_67_101">
<rect width="318" height="250" fill="white" transform="matrix(-1 0 0 1 318 0)"/>
</clipPath>
</defs>
</svg>
