<svg width="241" height="437" viewBox="0 0 241 437" fill="none" xmlns="http://www.w3.org/2000/svg">
<g clip-path="url(#clip0_67_112)">
<path d="M92.7748 239.62C93.259 246.389 93.4254 253.081 93.4708 259.789C99.8706 255.649 106.255 251.163 112.489 246.328C107.602 251.752 102.685 256.934 97.5255 261.753L128.103 266.134C116.997 266.074 105.922 265.877 94.8627 265.515C98.1459 269.246 101.157 273.023 104.198 276.966C107.299 280.924 110.234 284.958 113.033 289.097C106.603 282.148 99.5983 275.501 92.7143 269.382C91.5039 274.806 90.3541 280.214 88.8411 285.472C88.9622 279.776 88.6596 274.005 88.4477 268.34C83.6063 271.044 78.8253 273.567 74.0595 275.924C69.1423 278.205 64.3008 280.305 59.5199 282.254C68.6884 277.253 77.9629 271.391 86.7986 264.563L57.1445 260.227C66.1769 260.59 75.2244 260.831 84.3022 260.982C79.5969 256.012 74.4377 251.117 69.4903 246.57C76.0112 250.875 82.759 255.559 89.0681 260.393C90.5659 253.64 91.8217 246.721 92.8051 239.651L92.7748 239.62Z" fill="#3E3025"/>
<path d="M122.278 12.5695C126.741 10.1674 131.144 8.02209 135.773 5.96747C132.914 9.98607 129.948 13.8838 126.907 17.6909C125.637 19.0959 125.758 21.4225 126.923 23.3864C131.673 30.7287 135.214 38.3127 137.937 45.8513C133.61 39.068 128.572 32.5114 122.701 26.6194C121.279 24.9727 118.964 24.6252 117.391 25.6828C112.186 28.7798 107.103 32.043 102.17 35.4573C106.059 30.8647 109.871 26.0756 113.366 21.2261C114.562 19.7757 114.365 17.5096 112.867 15.8176C107.617 9.77456 101.202 4.32075 93.8945 0C101.928 2.70425 109.629 6.79838 116.468 11.9198C118.314 13.4155 120.735 13.7025 122.263 12.5846L122.278 12.5695Z" fill="#3E3025"/>
<path d="M78.9009 133.46C86.4355 132.055 91.4585 125.211 90.0212 118.141C88.5083 110.98 81.2309 106.735 73.772 108.638C70.035 109.56 66.9183 111.342 64.9363 114.137C62.9543 116.917 62.0919 120.331 62.8181 123.746C64.1949 130.529 71.3512 134.85 78.9009 133.46Z" stroke="#3E3025" stroke-width="1.65" stroke-linecap="round" stroke-linejoin="round"/>
<path d="M155.865 114.198C153.127 109.907 154.277 104.212 158.407 101.372C162.568 98.5313 168.241 99.6946 171.071 104.046C173.839 108.427 172.689 114.288 168.483 117.038C164.277 119.788 158.619 118.473 155.865 114.198Z" fill="#3E3025"/>
<path d="M88.5233 189.811C86.9801 187.107 88.251 183.798 91.3525 182.333C94.4541 180.882 98.2214 181.879 99.7797 184.659C101.323 187.424 100.097 190.868 96.9505 192.228C93.7884 193.603 90.1119 192.515 88.5384 189.811H88.5233Z" fill="#3E3025"/>
<path d="M220.953 181.199C219.849 178.767 220.651 175.851 222.769 174.643C224.887 173.434 227.489 174.416 228.609 176.879C229.728 179.341 228.911 182.317 226.748 183.511C224.599 184.704 222.027 183.632 220.953 181.199Z" fill="#3E3025"/>
<path d="M150.993 149.157C149.829 147.087 150.449 144.443 152.506 143.219C154.549 141.996 157.212 142.675 158.437 144.76C159.693 146.845 158.937 149.549 156.879 150.758C154.806 151.967 152.174 151.241 150.993 149.172V149.157Z" fill="#3E3025"/>
<path d="M216.369 63.6782C214.765 61.0948 214.901 57.5899 216.717 55.8374C218.532 54.0849 221.331 54.7799 222.98 57.4388C224.675 60.1581 224.433 63.6178 222.557 65.2494C220.696 66.8961 217.912 66.1709 216.369 63.6631V63.6782Z" fill="#3E3025"/>
<path d="M50.4573 379.063C46.0092 383.368 41.4249 387.553 36.8255 391.753C43.4372 393.158 50.064 394.366 56.8572 395.56C50.412 395.59 44.1483 395.681 37.809 395.469L52.636 416.998L33.6483 396.149C32.332 404.745 30.7283 413.296 28.8673 421.892C29.3212 413.598 29.6843 405.501 29.7146 397.252C25.3573 400.138 20.7881 402.691 16.3249 405.41C20.2132 401.603 24.162 397.947 27.8839 393.989C18.4733 391.844 9.01726 389.064 0 386.405C9.62245 388.021 19.5929 389.608 29.5633 390.62L15.0691 369.802L30.6224 386.843C31.394 380.785 31.8933 374.53 32.3926 368.487C32.9675 375.361 33.5273 382.447 33.8299 389.381C39.4127 386.042 44.9653 382.598 50.4573 379.063Z" fill="#3E3025"/>
<path d="M224.282 289.566L233.087 298.434L221.755 293.479C220.333 292.753 218.563 293.161 217.549 294.445C213.751 299.355 209.606 304.024 205.627 308.767C208.365 303.162 211.255 297.678 213.767 291.983C214.508 290.533 214.145 288.78 212.904 287.768L201.33 277.736L215.37 283.931C216.808 284.641 218.563 284.233 219.576 282.964L230.485 269.352L223.389 285.351C222.633 286.816 222.996 288.569 224.251 289.566H224.282Z" fill="#3E3025"/>
<path d="M115.787 312.166C120.598 316.457 127.876 316.412 131.704 311.789C135.547 307.181 134.563 300.141 129.495 296.077C124.426 292.013 117.376 292.24 113.745 296.591C110.129 300.972 110.9 307.816 115.787 312.166Z" stroke="#3E3025" stroke-width="1.4" stroke-linecap="round" stroke-linejoin="round"/>
<path d="M168.696 353.637C170.208 349.618 174.551 347.322 178.636 348.591C182.706 349.86 184.899 354.256 183.447 358.471C181.979 362.671 177.35 364.922 173.31 363.547C169.255 362.172 167.228 357.7 168.696 353.637Z" fill="#3E3025"/>
<path d="M82.7591 348.047C83.803 345.554 86.723 344.602 89.3405 345.902C91.9428 347.186 93.2137 350.253 92.1395 352.775C91.0653 355.298 88.0847 356.296 85.5127 354.981C82.9255 353.652 81.7303 350.555 82.7591 348.047Z" fill="#3E3025"/>
<path d="M157.802 431.667C158.801 429.688 161.131 428.736 163.037 429.537C164.928 430.322 165.654 432.573 164.641 434.568C163.612 436.562 161.267 437.544 159.376 436.713C157.469 435.882 156.819 433.661 157.817 431.682L157.802 431.667Z" fill="#3E3025"/>
<path d="M142.688 368.533C143.429 366.644 145.562 365.708 147.438 366.448C149.314 367.188 150.237 369.318 149.466 371.222C148.709 373.14 146.546 374.077 144.654 373.307C142.763 372.536 141.901 370.406 142.688 368.533Z" fill="#3E3025"/>
<path d="M233.511 368.231C234.222 366.1 236.431 364.756 238.443 365.224C240.455 365.693 241.514 367.808 240.788 369.953C240.062 372.098 237.838 373.473 235.841 372.974C233.844 372.491 232.815 370.361 233.526 368.215L233.511 368.231Z" fill="#3E3025"/>
</g>
<defs>
<clipPath id="clip0_67_112">
<rect width="241" height="437" fill="white"/>
</clipPath>
</defs>
</svg>
